solid ASCII
  facet normal -0.000000e+00 0.000000e+00 1.000000e+00
    outer loop
      vertex   9.650000e+01 6.846433e+01 9.675000e+00
      vertex   9.650000e+01 6.758933e+01 9.675000e+00
      vertex   1.077500e+02 6.846433e+01 9.675000e+00
    endloop
  endfacet
  facet normal 0.000000e+00 0.000000e+00 1.000000e+00
    outer loop
      vertex   1.077500e+02 6.846433e+01 9.675000e+00
      vertex   9.650000e+01 6.758933e+01 9.675000e+00
      vertex   1.077500e+02 6.758933e+01 9.675000e+00
    endloop
  endfacet
  facet normal 0.000000e+00 0.000000e+00 -1.000000e+00
    outer loop
      vertex   9.650000e+01 6.758933e+01 8.025000e+00
      vertex   9.650000e+01 6.846433e+01 8.025000e+00
      vertex   1.077500e+02 6.758933e+01 8.025000e+00
    endloop
  endfacet
  facet normal 0.000000e+00 0.000000e+00 -1.000000e+00
    outer loop
      vertex   1.077500e+02 6.758933e+01 8.025000e+00
      vertex   9.650000e+01 6.846433e+01 8.025000e+00
      vertex   1.077500e+02 6.846433e+01 8.025000e+00
    endloop
  endfacet
  facet normal 0.000000e+00 -1.000000e+00 0.000000e+00
    outer loop
      vertex   9.650000e+01 6.846433e+01 7.550000e+00
      vertex   1.077500e+02 6.846433e+01 7.550000e+00
      vertex   9.650000e+01 6.846433e+01 8.025000e+00
    endloop
  endfacet
  facet normal 0.000000e+00 -1.000000e+00 0.000000e+00
    outer loop
      vertex   9.650000e+01 6.846433e+01 8.025000e+00
      vertex   1.077500e+02 6.846433e+01 7.550000e+00
      vertex   1.077500e+02 6.846433e+01 8.025000e+00
    endloop
  endfacet
  facet normal 0.000000e+00 0.000000e+00 -1.000000e+00
    outer loop
      vertex   9.650000e+01 6.846433e+01 7.550000e+00
      vertex   9.650000e+01 6.896433e+01 7.550000e+00
      vertex   1.077500e+02 6.846433e+01 7.550000e+00
    endloop
  endfacet
  facet normal 0.000000e+00 0.000000e+00 -1.000000e+00
    outer loop
      vertex   1.077500e+02 6.846433e+01 7.550000e+00
      vertex   9.650000e+01 6.896433e+01 7.550000e+00
      vertex   1.077500e+02 6.896433e+01 7.550000e+00
    endloop
  endfacet
  facet normal 0.000000e+00 1.000000e+00 0.000000e+00
    outer loop
      vertex   9.650000e+01 6.896433e+01 7.550000e+00
      vertex   9.650000e+01 6.896433e+01 1.015000e+01
      vertex   1.077500e+02 6.896433e+01 7.550000e+00
    endloop
  endfacet
  facet normal 0.000000e+00 1.000000e+00 -0.000000e+00
    outer loop
      vertex   1.077500e+02 6.896433e+01 7.550000e+00
      vertex   9.650000e+01 6.896433e+01 1.015000e+01
      vertex   1.077500e+02 6.896433e+01 1.015000e+01
    endloop
  endfacet
  facet normal -0.000000e+00 0.000000e+00 1.000000e+00
    outer loop
      vertex   9.650000e+01 6.896433e+01 1.015000e+01
      vertex   9.650000e+01 6.846433e+01 1.015000e+01
      vertex   1.077500e+02 6.896433e+01 1.015000e+01
    endloop
  endfacet
  facet normal 0.000000e+00 0.000000e+00 1.000000e+00
    outer loop
      vertex   1.077500e+02 6.896433e+01 1.015000e+01
      vertex   9.650000e+01 6.846433e+01 1.015000e+01
      vertex   1.077500e+02 6.846433e+01 1.015000e+01
    endloop
  endfacet
  facet normal 0.000000e+00 -1.000000e+00 0.000000e+00
    outer loop
      vertex   9.650000e+01 6.846433e+01 9.675000e+00
      vertex   1.077500e+02 6.846433e+01 9.675000e+00
      vertex   9.650000e+01 6.846433e+01 1.015000e+01
    endloop
  endfacet
  facet normal 0.000000e+00 -1.000000e+00 0.000000e+00
    outer loop
      vertex   9.650000e+01 6.846433e+01 1.015000e+01
      vertex   1.077500e+02 6.846433e+01 9.675000e+00
      vertex   1.077500e+02 6.846433e+01 1.015000e+01
    endloop
  endfacet
  facet normal 1.000000e+00 -0.000000e+00 0.000000e+00
    outer loop
      vertex   1.077500e+02 6.846433e+01 1.015000e+01
      vertex   1.077500e+02 6.846433e+01 9.675000e+00
      vertex   1.077500e+02 6.896433e+01 1.015000e+01
    endloop
  endfacet
  facet normal 1.000000e+00 0.000000e+00 0.000000e+00
    outer loop
      vertex   1.077500e+02 6.896433e+01 1.015000e+01
      vertex   1.077500e+02 6.846433e+01 9.675000e+00
      vertex   1.077500e+02 6.846433e+01 8.025000e+00
    endloop
  endfacet
  facet normal 1.000000e+00 0.000000e+00 0.000000e+00
    outer loop
      vertex   1.077500e+02 6.896433e+01 1.015000e+01
      vertex   1.077500e+02 6.846433e+01 8.025000e+00
      vertex   1.077500e+02 6.896433e+01 7.550000e+00
    endloop
  endfacet
  facet normal 1.000000e+00 0.000000e+00 0.000000e+00
    outer loop
      vertex   1.077500e+02 6.896433e+01 7.550000e+00
      vertex   1.077500e+02 6.846433e+01 8.025000e+00
      vertex   1.077500e+02 6.846433e+01 7.550000e+00
    endloop
  endfacet
  facet normal 1.000000e+00 -0.000000e+00 0.000000e+00
    outer loop
      vertex   1.077500e+02 6.758933e+01 9.675000e+00
      vertex   1.077500e+02 6.758933e+01 8.025000e+00
      vertex   1.077500e+02 6.846433e+01 9.675000e+00
    endloop
  endfacet
  facet normal 1.000000e+00 0.000000e+00 0.000000e+00
    outer loop
      vertex   1.077500e+02 6.846433e+01 9.675000e+00
      vertex   1.077500e+02 6.758933e+01 8.025000e+00
      vertex   1.077500e+02 6.846433e+01 8.025000e+00
    endloop
  endfacet
  facet normal -1.000000e+00 0.000000e+00 0.000000e+00
    outer loop
      vertex   9.650000e+01 6.846433e+01 1.015000e+01
      vertex   9.650000e+01 6.896433e+01 1.015000e+01
      vertex   9.650000e+01 6.846433e+01 9.675000e+00
    endloop
  endfacet
  facet normal -1.000000e+00 0.000000e+00 0.000000e+00
    outer loop
      vertex   9.650000e+01 6.846433e+01 9.675000e+00
      vertex   9.650000e+01 6.896433e+01 1.015000e+01
      vertex   9.650000e+01 6.846433e+01 8.025000e+00
    endloop
  endfacet
  facet normal -1.000000e+00 0.000000e+00 -0.000000e+00
    outer loop
      vertex   9.650000e+01 6.846433e+01 9.675000e+00
      vertex   9.650000e+01 6.846433e+01 8.025000e+00
      vertex   9.650000e+01 6.758933e+01 8.025000e+00
    endloop
  endfacet
  facet normal -1.000000e+00 0.000000e+00 -0.000000e+00
    outer loop
      vertex   9.650000e+01 6.896433e+01 1.015000e+01
      vertex   9.650000e+01 6.896433e+01 7.550000e+00
      vertex   9.650000e+01 6.846433e+01 8.025000e+00
    endloop
  endfacet
  facet normal -1.000000e+00 0.000000e+00 0.000000e+00
    outer loop
      vertex   9.650000e+01 6.846433e+01 8.025000e+00
      vertex   9.650000e+01 6.896433e+01 7.550000e+00
      vertex   9.650000e+01 6.846433e+01 7.550000e+00
    endloop
  endfacet
  facet normal -1.000000e+00 0.000000e+00 0.000000e+00
    outer loop
      vertex   9.650000e+01 6.758933e+01 8.025000e+00
      vertex   9.650000e+01 6.758933e+01 9.675000e+00
      vertex   9.650000e+01 6.846433e+01 9.675000e+00
    endloop
  endfacet
  facet normal 1.000000e+00 0.000000e+00 0.000000e+00
    outer loop
      vertex   1.079500e+02 6.758933e+01 1.170000e+01
      vertex   1.079500e+02 6.638933e+01 1.170000e+01
      vertex   1.079500e+02 6.758933e+01 9.100000e+00
    endloop
  endfacet
  facet normal 1.000000e+00 0.000000e+00 0.000000e+00
    outer loop
      vertex   1.079500e+02 6.758933e+01 9.100000e+00
      vertex   1.079500e+02 6.638933e+01 1.170000e+01
      vertex   1.079500e+02 6.638933e+01 9.100000e+00
    endloop
  endfacet
  facet normal 1.000000e+00 0.000000e+00 0.000000e+00
    outer loop
      vertex   1.079500e+02 4.778933e+01 1.170000e+01
      vertex   1.079500e+02 4.658933e+01 1.170000e+01
      vertex   1.079500e+02 4.778933e+01 9.100000e+00
    endloop
  endfacet
  facet normal 1.000000e+00 0.000000e+00 0.000000e+00
    outer loop
      vertex   1.079500e+02 4.778933e+01 9.100000e+00
      vertex   1.079500e+02 4.658933e+01 1.170000e+01
      vertex   1.079500e+02 4.658933e+01 9.100000e+00
    endloop
  endfacet
  facet normal -1.044916e-16 0.000000e+00 1.000000e+00
    outer loop
      vertex   1.079500e+02 4.778933e+01 9.100000e+00
      vertex   1.079500e+02 4.658933e+01 9.100000e+00
      vertex   1.249500e+02 4.778933e+01 9.100000e+00
    endloop
  endfacet
  facet normal -1.952040e-16 1.285093e-15 1.000000e+00
    outer loop
      vertex   1.249500e+02 4.778933e+01 9.100000e+00
      vertex   1.079500e+02 4.658933e+01 9.100000e+00
      vertex   1.261500e+02 4.658933e+01 9.100000e+00
    endloop
  endfacet
  facet normal -1.384794e-15 9.550306e-17 1.000000e+00
    outer loop
      vertex   1.249500e+02 4.778933e+01 9.100000e+00
      vertex   1.261500e+02 4.658933e+01 9.100000e+00
      vertex   1.249500e+02 6.638933e+01 9.100000e+00
    endloop
  endfacet
  facet normal -1.691768e-16 1.691768e-16 1.000000e+00
    outer loop
      vertex   1.249500e+02 6.638933e+01 9.100000e+00
      vertex   1.261500e+02 4.658933e+01 9.100000e+00
      vertex   1.261500e+02 6.758933e+01 9.100000e+00
    endloop
  endfacet
  facet normal -9.760202e-17 9.760202e-17 1.000000e+00
    outer loop
      vertex   1.249500e+02 6.638933e+01 9.100000e+00
      vertex   1.261500e+02 6.758933e+01 9.100000e+00
      vertex   1.079500e+02 6.758933e+01 9.100000e+00
    endloop
  endfacet
  facet normal -1.044916e-16 0.000000e+00 1.000000e+00
    outer loop
      vertex   1.079500e+02 6.758933e+01 9.100000e+00
      vertex   1.079500e+02 6.638933e+01 9.100000e+00
      vertex   1.249500e+02 6.638933e+01 9.100000e+00
    endloop
  endfacet
  facet normal 0.000000e+00 1.000000e+00 0.000000e+00
    outer loop
      vertex   9.650000e+01 6.758933e+01 9.675000e+00
      vertex   9.650000e+01 6.758933e+01 8.025000e+00
      vertex   8.950000e+01 6.758933e+01 6.000000e+00
    endloop
  endfacet
  facet normal 0.000000e+00 1.000000e+00 0.000000e+00
    outer loop
      vertex   8.950000e+01 6.758933e+01 6.000000e+00
      vertex   9.650000e+01 6.758933e+01 8.025000e+00
      vertex   1.077500e+02 6.758933e+01 8.025000e+00
    endloop
  endfacet
  facet normal 0.000000e+00 1.000000e+00 0.000000e+00
    outer loop
      vertex   8.950000e+01 6.758933e+01 6.000000e+00
      vertex   1.077500e+02 6.758933e+01 8.025000e+00
      vertex   1.261500e+02 6.758933e+01 6.000000e+00
    endloop
  endfacet
  facet normal 0.000000e+00 1.000000e+00 -0.000000e+00
    outer loop
      vertex   1.261500e+02 6.758933e+01 6.000000e+00
      vertex   1.077500e+02 6.758933e+01 8.025000e+00
      vertex   1.261500e+02 6.758933e+01 9.100000e+00
    endloop
  endfacet
  facet normal 0.000000e+00 1.000000e+00 0.000000e+00
    outer loop
      vertex   1.261500e+02 6.758933e+01 9.100000e+00
      vertex   1.077500e+02 6.758933e+01 8.025000e+00
      vertex   1.079500e+02 6.758933e+01 9.100000e+00
    endloop
  endfacet
  facet normal 0.000000e+00 1.000000e+00 0.000000e+00
    outer loop
      vertex   1.079500e+02 6.758933e+01 9.100000e+00
      vertex   1.077500e+02 6.758933e+01 8.025000e+00
      vertex   1.077500e+02 6.758933e+01 9.675000e+00
    endloop
  endfacet
  facet normal 0.000000e+00 1.000000e+00 -0.000000e+00
    outer loop
      vertex   1.079500e+02 6.758933e+01 9.100000e+00
      vertex   1.077500e+02 6.758933e+01 9.675000e+00
      vertex   1.079500e+02 6.758933e+01 1.170000e+01
    endloop
  endfacet
  facet normal 0.000000e+00 1.000000e+00 0.000000e+00
    outer loop
      vertex   1.079500e+02 6.758933e+01 1.170000e+01
      vertex   1.077500e+02 6.758933e+01 9.675000e+00
      vertex   9.650000e+01 6.758933e+01 9.675000e+00
    endloop
  endfacet
  facet normal 0.000000e+00 1.000000e+00 0.000000e+00
    outer loop
      vertex   1.079500e+02 6.758933e+01 1.170000e+01
      vertex   9.650000e+01 6.758933e+01 9.675000e+00
      vertex   8.950000e+01 6.758933e+01 1.170000e+01
    endloop
  endfacet
  facet normal 0.000000e+00 1.000000e+00 0.000000e+00
    outer loop
      vertex   8.950000e+01 6.758933e+01 1.170000e+01
      vertex   9.650000e+01 6.758933e+01 9.675000e+00
      vertex   8.950000e+01 6.758933e+01 6.000000e+00
    endloop
  endfacet
  facet normal 0.000000e+00 -1.000000e+00 -0.000000e+00
    outer loop
      vertex   1.079500e+02 6.638933e+01 1.170000e+01
      vertex   9.310000e+01 6.638933e+01 1.050000e+01
      vertex   1.079500e+02 6.638933e+01 9.100000e+00
    endloop
  endfacet
  facet normal -0.000000e+00 -1.000000e+00 0.000000e+00
    outer loop
      vertex   1.079500e+02 6.638933e+01 9.100000e+00
      vertex   9.310000e+01 6.638933e+01 1.050000e+01
      vertex   9.070000e+01 6.638933e+01 6.000000e+00
    endloop
  endfacet
  facet normal 0.000000e+00 -1.000000e+00 -0.000000e+00
    outer loop
      vertex   1.079500e+02 6.638933e+01 9.100000e+00
      vertex   9.070000e+01 6.638933e+01 6.000000e+00
      vertex   1.249500e+02 6.638933e+01 6.000000e+00
    endloop
  endfacet
  facet normal -0.000000e+00 -1.000000e+00 0.000000e+00
    outer loop
      vertex   1.079500e+02 6.638933e+01 1.170000e+01
      vertex   9.310000e+01 6.638933e+01 1.170000e+01
      vertex   9.310000e+01 6.638933e+01 1.050000e+01
    endloop
  endfacet
  facet normal -0.000000e+00 -1.000000e+00 0.000000e+00
    outer loop
      vertex   9.310000e+01 6.638933e+01 1.050000e+01
      vertex   9.070000e+01 6.638933e+01 1.050000e+01
      vertex   9.070000e+01 6.638933e+01 6.000000e+00
    endloop
  endfacet
  facet normal 0.000000e+00 -1.000000e+00 0.000000e+00
    outer loop
      vertex   1.249500e+02 6.638933e+01 6.000000e+00
      vertex   1.249500e+02 6.638933e+01 9.100000e+00
      vertex   1.079500e+02 6.638933e+01 9.100000e+00
    endloop
  endfacet
  facet normal -1.000000e+00 0.000000e+00 0.000000e+00
    outer loop
      vertex   1.249500e+02 4.778933e+01 6.000000e+00
      vertex   1.249500e+02 4.778933e+01 9.100000e+00
      vertex   1.249500e+02 5.278933e+01 7.200000e+00
    endloop
  endfacet
  facet normal -1.000000e+00 0.000000e+00 0.000000e+00
    outer loop
      vertex   1.249500e+02 5.278933e+01 7.200000e+00
      vertex   1.249500e+02 4.778933e+01 9.100000e+00
      vertex   1.249500e+02 6.638933e+01 9.100000e+00
    endloop
  endfacet
  facet normal -1.000000e+00 0.000000e+00 0.000000e+00
    outer loop
      vertex   1.249500e+02 5.278933e+01 7.200000e+00
      vertex   1.249500e+02 6.638933e+01 9.100000e+00
      vertex   1.249500e+02 6.138933e+01 7.200000e+00
    endloop
  endfacet
  facet normal -1.000000e+00 0.000000e+00 0.000000e+00
    outer loop
      vertex   1.249500e+02 6.138933e+01 7.200000e+00
      vertex   1.249500e+02 6.638933e+01 9.100000e+00
      vertex   1.249500e+02 6.638933e+01 6.000000e+00
    endloop
  endfacet
  facet normal -1.000000e+00 0.000000e+00 0.000000e+00
    outer loop
      vertex   1.249500e+02 6.138933e+01 7.200000e+00
      vertex   1.249500e+02 6.638933e+01 6.000000e+00
      vertex   1.249500e+02 6.138933e+01 6.000000e+00
    endloop
  endfacet
  facet normal -1.000000e+00 0.000000e+00 -0.000000e+00
    outer loop
      vertex   1.249500e+02 5.278933e+01 7.200000e+00
      vertex   1.249500e+02 5.278933e+01 6.000000e+00
      vertex   1.249500e+02 4.778933e+01 6.000000e+00
    endloop
  endfacet
  facet normal 0.000000e+00 -0.000000e+00 1.000000e+00
    outer loop
      vertex   1.079500e+02 6.638933e+01 1.170000e+01
      vertex   1.079500e+02 6.758933e+01 1.170000e+01
      vertex   9.310000e+01 6.638933e+01 1.170000e+01
    endloop
  endfacet
  facet normal 0.000000e+00 -0.000000e+00 1.000000e+00
    outer loop
      vertex   9.310000e+01 6.638933e+01 1.170000e+01
      vertex   1.079500e+02 6.758933e+01 1.170000e+01
      vertex   8.950000e+01 6.758933e+01 1.170000e+01
    endloop
  endfacet
  facet normal 5.639228e-17 1.691768e-16 1.000000e+00
    outer loop
      vertex   9.310000e+01 6.638933e+01 1.170000e+01
      vertex   8.950000e+01 6.758933e+01 1.170000e+01
      vertex   8.950000e+01 4.658933e+01 1.170000e+01
    endloop
  endfacet
  facet normal -6.366870e-17 1.910061e-16 1.000000e+00
    outer loop
      vertex   9.310000e+01 6.638933e+01 1.170000e+01
      vertex   8.950000e+01 4.658933e+01 1.170000e+01
      vertex   9.310000e+01 4.778933e+01 1.170000e+01
    endloop
  endfacet
  facet normal 0.000000e+00 0.000000e+00 1.000000e+00
    outer loop
      vertex   9.310000e+01 4.778933e+01 1.170000e+01
      vertex   8.950000e+01 4.658933e+01 1.170000e+01
      vertex   1.079500e+02 4.658933e+01 1.170000e+01
    endloop
  endfacet
  facet normal -0.000000e+00 0.000000e+00 1.000000e+00
    outer loop
      vertex   9.310000e+01 4.778933e+01 1.170000e+01
      vertex   1.079500e+02 4.658933e+01 1.170000e+01
      vertex   1.079500e+02 4.778933e+01 1.170000e+01
    endloop
  endfacet
  facet normal 0.000000e+00 1.000000e+00 0.000000e+00
    outer loop
      vertex   1.249500e+02 4.778933e+01 9.100000e+00
      vertex   1.249500e+02 4.778933e+01 6.000000e+00
      vertex   1.079500e+02 4.778933e+01 9.100000e+00
    endloop
  endfacet
  facet normal 0.000000e+00 1.000000e+00 0.000000e+00
    outer loop
      vertex   1.079500e+02 4.778933e+01 9.100000e+00
      vertex   1.249500e+02 4.778933e+01 6.000000e+00
      vertex   9.070000e+01 4.778933e+01 6.000000e+00
    endloop
  endfacet
  facet normal 0.000000e+00 1.000000e+00 0.000000e+00
    outer loop
      vertex   1.079500e+02 4.778933e+01 9.100000e+00
      vertex   9.070000e+01 4.778933e+01 6.000000e+00
      vertex   9.310000e+01 4.778933e+01 1.050000e+01
    endloop
  endfacet
  facet normal 0.000000e+00 1.000000e+00 0.000000e+00
    outer loop
      vertex   9.310000e+01 4.778933e+01 1.050000e+01
      vertex   9.070000e+01 4.778933e+01 6.000000e+00
      vertex   9.070000e+01 4.778933e+01 1.050000e+01
    endloop
  endfacet
  facet normal -0.000000e+00 1.000000e+00 0.000000e+00
    outer loop
      vertex   9.310000e+01 4.778933e+01 1.170000e+01
      vertex   1.079500e+02 4.778933e+01 1.170000e+01
      vertex   9.310000e+01 4.778933e+01 1.050000e+01
    endloop
  endfacet
  facet normal -0.000000e+00 1.000000e+00 0.000000e+00
    outer loop
      vertex   9.310000e+01 4.778933e+01 1.050000e+01
      vertex   1.079500e+02 4.778933e+01 1.170000e+01
      vertex   1.079500e+02 4.778933e+01 9.100000e+00
    endloop
  endfacet
  facet normal 1.000000e+00 0.000000e+00 0.000000e+00
    outer loop
      vertex   9.310000e+01 6.638933e+01 1.170000e+01
      vertex   9.310000e+01 4.778933e+01 1.170000e+01
      vertex   9.310000e+01 6.638933e+01 1.050000e+01
    endloop
  endfacet
  facet normal 1.000000e+00 0.000000e+00 0.000000e+00
    outer loop
      vertex   9.310000e+01 6.638933e+01 1.050000e+01
      vertex   9.310000e+01 4.778933e+01 1.170000e+01
      vertex   9.310000e+01 4.778933e+01 1.050000e+01
    endloop
  endfacet
  facet normal 1.000000e+00 -0.000000e+00 0.000000e+00
    outer loop
      vertex   9.070000e+01 6.008933e+01 1.050000e+01
      vertex   9.070000e+01 6.024612e+01 1.049178e+01
      vertex   9.070000e+01 6.638933e+01 1.050000e+01
    endloop
  endfacet
  facet normal 1.000000e+00 0.000000e+00 0.000000e+00
    outer loop
      vertex   9.070000e+01 6.638933e+01 1.050000e+01
      vertex   9.070000e+01 6.024612e+01 1.049178e+01
      vertex   9.070000e+01 6.040120e+01 1.046722e+01
    endloop
  endfacet
  facet normal 1.000000e+00 0.000000e+00 0.000000e+00
    outer loop
      vertex   9.070000e+01 6.638933e+01 1.050000e+01
      vertex   9.070000e+01 6.040120e+01 1.046722e+01
      vertex   9.070000e+01 6.055286e+01 1.042658e+01
    endloop
  endfacet
  facet normal 1.000000e+00 -0.000000e+00 0.000000e+00
    outer loop
      vertex   9.070000e+01 6.055286e+01 1.042658e+01
      vertex   9.070000e+01 6.069943e+01 1.037032e+01
      vertex   9.070000e+01 6.638933e+01 1.050000e+01
    endloop
  endfacet
  facet normal 1.000000e+00 0.000000e+00 0.000000e+00
    outer loop
      vertex   9.070000e+01 6.638933e+01 1.050000e+01
      vertex   9.070000e+01 6.069943e+01 1.037032e+01
      vertex   9.070000e+01 6.083933e+01 1.029904e+01
    endloop
  endfacet
  facet normal 1.000000e+00 0.000000e+00 0.000000e+00
    outer loop
      vertex   9.070000e+01 6.638933e+01 1.050000e+01
      vertex   9.070000e+01 6.083933e+01 1.029904e+01
      vertex   9.070000e+01 6.097101e+01 1.021353e+01
    endloop
  endfacet
  facet normal 1.000000e+00 -0.000000e+00 0.000000e+00
    outer loop
      vertex   9.070000e+01 6.097101e+01 1.021353e+01
      vertex   9.070000e+01 6.109303e+01 1.011472e+01
      vertex   9.070000e+01 6.638933e+01 1.050000e+01
    endloop
  endfacet
  facet normal 1.000000e+00 0.000000e+00 0.000000e+00
    outer loop
      vertex   9.070000e+01 6.638933e+01 1.050000e+01
      vertex   9.070000e+01 6.109303e+01 1.011472e+01
      vertex   9.070000e+01 6.120405e+01 1.000370e+01
    endloop
  endfacet
  facet normal 1.000000e+00 0.000000e+00 0.000000e+00
    outer loop
      vertex   9.070000e+01 6.638933e+01 1.050000e+01
      vertex   9.070000e+01 6.120405e+01 1.000370e+01
      vertex   9.070000e+01 6.130286e+01 9.881678e+00
    endloop
  endfacet
  facet normal 1.000000e+00 -0.000000e+00 0.000000e+00
    outer loop
      vertex   9.070000e+01 6.130286e+01 9.881678e+00
      vertex   9.070000e+01 6.138837e+01 9.750000e+00
      vertex   9.070000e+01 6.638933e+01 1.050000e+01
    endloop
  endfacet
  facet normal 1.000000e+00 0.000000e+00 0.000000e+00
    outer loop
      vertex   9.070000e+01 6.638933e+01 1.050000e+01
      vertex   9.070000e+01 6.138837e+01 9.750000e+00
      vertex   9.070000e+01 6.145965e+01 9.610105e+00
    endloop
  endfacet
  facet normal 1.000000e+00 0.000000e+00 0.000000e+00
    outer loop
      vertex   9.070000e+01 6.638933e+01 1.050000e+01
      vertex   9.070000e+01 6.145965e+01 9.610105e+00
      vertex   9.070000e+01 6.151591e+01 9.463525e+00
    endloop
  endfacet
  facet normal 1.000000e+00 -0.000000e+00 0.000000e+00
    outer loop
      vertex   9.070000e+01 6.151591e+01 9.463525e+00
      vertex   9.070000e+01 6.155655e+01 9.311868e+00
      vertex   9.070000e+01 6.638933e+01 1.050000e+01
    endloop
  endfacet
  facet normal 1.000000e+00 0.000000e+00 0.000000e+00
    outer loop
      vertex   9.070000e+01 6.638933e+01 1.050000e+01
      vertex   9.070000e+01 6.155655e+01 9.311868e+00
      vertex   9.070000e+01 6.158111e+01 9.156793e+00
    endloop
  endfacet
  facet normal 1.000000e+00 0.000000e+00 0.000000e+00
    outer loop
      vertex   9.070000e+01 6.638933e+01 1.050000e+01
      vertex   9.070000e+01 6.158111e+01 9.156793e+00
      vertex   9.070000e+01 6.158933e+01 9.000000e+00
    endloop
  endfacet
  facet normal 1.000000e+00 -0.000000e+00 0.000000e+00
    outer loop
      vertex   9.070000e+01 6.158933e+01 9.000000e+00
      vertex   9.070000e+01 6.158933e+01 8.700000e+00
      vertex   9.070000e+01 6.638933e+01 1.050000e+01
    endloop
  endfacet
  facet normal 1.000000e+00 0.000000e+00 0.000000e+00
    outer loop
      vertex   9.070000e+01 6.638933e+01 1.050000e+01
      vertex   9.070000e+01 6.158933e+01 8.700000e+00
      vertex   9.070000e+01 6.158111e+01 8.543207e+00
    endloop
  endfacet
  facet normal 1.000000e+00 0.000000e+00 0.000000e+00
    outer loop
      vertex   9.070000e+01 6.638933e+01 1.050000e+01
      vertex   9.070000e+01 6.158111e+01 8.543207e+00
      vertex   9.070000e+01 6.638933e+01 6.000000e+00
    endloop
  endfacet
  facet normal 1.000000e+00 0.000000e+00 0.000000e+00
    outer loop
      vertex   9.070000e+01 6.638933e+01 6.000000e+00
      vertex   9.070000e+01 6.158111e+01 8.543207e+00
      vertex   9.070000e+01 6.155655e+01 8.388132e+00
    endloop
  endfacet
  facet normal 1.000000e+00 0.000000e+00 0.000000e+00
    outer loop
      vertex   9.070000e+01 6.638933e+01 6.000000e+00
      vertex   9.070000e+01 6.155655e+01 8.388132e+00
      vertex   9.070000e+01 6.151591e+01 8.236475e+00
    endloop
  endfacet
  facet normal 1.000000e+00 0.000000e+00 0.000000e+00
    outer loop
      vertex   9.070000e+01 6.151591e+01 8.236475e+00
      vertex   9.070000e+01 6.145965e+01 8.089895e+00
      vertex   9.070000e+01 6.638933e+01 6.000000e+00
    endloop
  endfacet
  facet normal 1.000000e+00 0.000000e+00 0.000000e+00
    outer loop
      vertex   9.070000e+01 6.638933e+01 6.000000e+00
      vertex   9.070000e+01 6.145965e+01 8.089895e+00
      vertex   9.070000e+01 6.138933e+01 7.200000e+00
    endloop
  endfacet
  facet normal 1.000000e+00 0.000000e+00 0.000000e+00
    outer loop
      vertex   9.070000e+01 6.638933e+01 6.000000e+00
      vertex   9.070000e+01 6.138933e+01 7.200000e+00
      vertex   9.070000e+01 6.138933e+01 6.000000e+00
    endloop
  endfacet
  facet normal 1.000000e+00 0.000000e+00 0.000000e+00
    outer loop
      vertex   9.070000e+01 6.145965e+01 8.089895e+00
      vertex   9.070000e+01 6.138837e+01 7.950000e+00
      vertex   9.070000e+01 6.138933e+01 7.200000e+00
    endloop
  endfacet
  facet normal 1.000000e+00 0.000000e+00 0.000000e+00
    outer loop
      vertex   9.070000e+01 6.138933e+01 7.200000e+00
      vertex   9.070000e+01 6.138837e+01 7.950000e+00
      vertex   9.070000e+01 6.130286e+01 7.818322e+00
    endloop
  endfacet
  facet normal 1.000000e+00 0.000000e+00 0.000000e+00
    outer loop
      vertex   9.070000e+01 6.138933e+01 7.200000e+00
      vertex   9.070000e+01 6.130286e+01 7.818322e+00
      vertex   9.070000e+01 6.120405e+01 7.696304e+00
    endloop
  endfacet
  facet normal 1.000000e+00 0.000000e+00 0.000000e+00
    outer loop
      vertex   9.070000e+01 6.120405e+01 7.696304e+00
      vertex   9.070000e+01 6.109303e+01 7.585283e+00
      vertex   9.070000e+01 6.138933e+01 7.200000e+00
    endloop
  endfacet
  facet normal 1.000000e+00 0.000000e+00 0.000000e+00
    outer loop
      vertex   9.070000e+01 6.138933e+01 7.200000e+00
      vertex   9.070000e+01 6.109303e+01 7.585283e+00
      vertex   9.070000e+01 6.097101e+01 7.486475e+00
    endloop
  endfacet
  facet normal 1.000000e+00 0.000000e+00 0.000000e+00
    outer loop
      vertex   9.070000e+01 6.138933e+01 7.200000e+00
      vertex   9.070000e+01 6.097101e+01 7.486475e+00
      vertex   9.070000e+01 6.083933e+01 7.400962e+00
    endloop
  endfacet
  facet normal 1.000000e+00 0.000000e+00 0.000000e+00
    outer loop
      vertex   9.070000e+01 6.083933e+01 7.400962e+00
      vertex   9.070000e+01 6.069943e+01 7.329682e+00
      vertex   9.070000e+01 6.138933e+01 7.200000e+00
    endloop
  endfacet
  facet normal 1.000000e+00 0.000000e+00 0.000000e+00
    outer loop
      vertex   9.070000e+01 6.138933e+01 7.200000e+00
      vertex   9.070000e+01 6.069943e+01 7.329682e+00
      vertex   9.070000e+01 6.055286e+01 7.273415e+00
    endloop
  endfacet
  facet normal 1.000000e+00 0.000000e+00 0.000000e+00
    outer loop
      vertex   9.070000e+01 6.138933e+01 7.200000e+00
      vertex   9.070000e+01 6.055286e+01 7.273415e+00
      vertex   9.070000e+01 6.040120e+01 7.232779e+00
    endloop
  endfacet
  facet normal 1.000000e+00 0.000000e+00 0.000000e+00
    outer loop
      vertex   9.070000e+01 6.040120e+01 7.232779e+00
      vertex   9.070000e+01 6.024612e+01 7.208217e+00
      vertex   9.070000e+01 6.138933e+01 7.200000e+00
    endloop
  endfacet
  facet normal 1.000000e+00 0.000000e+00 0.000000e+00
    outer loop
      vertex   9.070000e+01 6.138933e+01 7.200000e+00
      vertex   9.070000e+01 6.024612e+01 7.208217e+00
      vertex   9.070000e+01 6.008933e+01 7.200000e+00
    endloop
  endfacet
  facet normal 1.000000e+00 0.000000e+00 0.000000e+00
    outer loop
      vertex   9.070000e+01 5.408933e+01 1.050000e+01
      vertex   9.070000e+01 4.778933e+01 1.050000e+01
      vertex   9.070000e+01 5.393254e+01 1.049178e+01
    endloop
  endfacet
  facet normal 1.000000e+00 0.000000e+00 0.000000e+00
    outer loop
      vertex   9.070000e+01 5.393254e+01 1.049178e+01
      vertex   9.070000e+01 4.778933e+01 1.050000e+01
      vertex   9.070000e+01 5.377746e+01 1.046722e+01
    endloop
  endfacet
  facet normal 1.000000e+00 0.000000e+00 0.000000e+00
    outer loop
      vertex   9.070000e+01 5.377746e+01 1.046722e+01
      vertex   9.070000e+01 4.778933e+01 1.050000e+01
      vertex   9.070000e+01 5.362580e+01 1.042658e+01
    endloop
  endfacet
  facet normal 1.000000e+00 0.000000e+00 0.000000e+00
    outer loop
      vertex   9.070000e+01 5.362580e+01 1.042658e+01
      vertex   9.070000e+01 4.778933e+01 1.050000e+01
      vertex   9.070000e+01 5.347923e+01 1.037032e+01
    endloop
  endfacet
  facet normal 1.000000e+00 0.000000e+00 0.000000e+00
    outer loop
      vertex   9.070000e+01 5.347923e+01 1.037032e+01
      vertex   9.070000e+01 4.778933e+01 1.050000e+01
      vertex   9.070000e+01 5.333933e+01 1.029904e+01
    endloop
  endfacet
  facet normal 1.000000e+00 0.000000e+00 0.000000e+00
    outer loop
      vertex   9.070000e+01 5.333933e+01 1.029904e+01
      vertex   9.070000e+01 4.778933e+01 1.050000e+01
      vertex   9.070000e+01 5.320765e+01 1.021353e+01
    endloop
  endfacet
  facet normal 1.000000e+00 0.000000e+00 0.000000e+00
    outer loop
      vertex   9.070000e+01 5.320765e+01 1.021353e+01
      vertex   9.070000e+01 4.778933e+01 1.050000e+01
      vertex   9.070000e+01 5.308563e+01 1.011472e+01
    endloop
  endfacet
  facet normal 1.000000e+00 0.000000e+00 0.000000e+00
    outer loop
      vertex   9.070000e+01 5.308563e+01 1.011472e+01
      vertex   9.070000e+01 4.778933e+01 1.050000e+01
      vertex   9.070000e+01 5.297461e+01 1.000370e+01
    endloop
  endfacet
  facet normal 1.000000e+00 0.000000e+00 0.000000e+00
    outer loop
      vertex   9.070000e+01 5.297461e+01 1.000370e+01
      vertex   9.070000e+01 4.778933e+01 1.050000e+01
      vertex   9.070000e+01 5.287580e+01 9.881678e+00
    endloop
  endfacet
  facet normal 1.000000e+00 0.000000e+00 0.000000e+00
    outer loop
      vertex   9.070000e+01 5.287580e+01 9.881678e+00
      vertex   9.070000e+01 4.778933e+01 1.050000e+01
      vertex   9.070000e+01 5.279029e+01 9.750000e+00
    endloop
  endfacet
  facet normal 1.000000e+00 0.000000e+00 0.000000e+00
    outer loop
      vertex   9.070000e+01 5.279029e+01 9.750000e+00
      vertex   9.070000e+01 4.778933e+01 1.050000e+01
      vertex   9.070000e+01 5.271901e+01 9.610105e+00
    endloop
  endfacet
  facet normal 1.000000e+00 0.000000e+00 0.000000e+00
    outer loop
      vertex   9.070000e+01 5.271901e+01 9.610105e+00
      vertex   9.070000e+01 4.778933e+01 1.050000e+01
      vertex   9.070000e+01 5.266275e+01 9.463525e+00
    endloop
  endfacet
  facet normal 1.000000e+00 0.000000e+00 0.000000e+00
    outer loop
      vertex   9.070000e+01 5.266275e+01 9.463525e+00
      vertex   9.070000e+01 4.778933e+01 1.050000e+01
      vertex   9.070000e+01 5.262211e+01 9.311868e+00
    endloop
  endfacet
  facet normal 1.000000e+00 0.000000e+00 0.000000e+00
    outer loop
      vertex   9.070000e+01 5.262211e+01 9.311868e+00
      vertex   9.070000e+01 4.778933e+01 1.050000e+01
      vertex   9.070000e+01 5.259755e+01 9.156793e+00
    endloop
  endfacet
  facet normal 1.000000e+00 0.000000e+00 0.000000e+00
    outer loop
      vertex   9.070000e+01 5.259755e+01 9.156793e+00
      vertex   9.070000e+01 4.778933e+01 1.050000e+01
      vertex   9.070000e+01 5.258933e+01 9.000000e+00
    endloop
  endfacet
  facet normal 1.000000e+00 0.000000e+00 0.000000e+00
    outer loop
      vertex   9.070000e+01 5.258933e+01 9.000000e+00
      vertex   9.070000e+01 4.778933e+01 1.050000e+01
      vertex   9.070000e+01 5.258933e+01 8.700000e+00
    endloop
  endfacet
  facet normal 1.000000e+00 0.000000e+00 0.000000e+00
    outer loop
      vertex   9.070000e+01 5.258933e+01 8.700000e+00
      vertex   9.070000e+01 4.778933e+01 1.050000e+01
      vertex   9.070000e+01 5.259755e+01 8.543207e+00
    endloop
  endfacet
  facet normal 1.000000e+00 0.000000e+00 0.000000e+00
    outer loop
      vertex   9.070000e+01 5.259755e+01 8.543207e+00
      vertex   9.070000e+01 4.778933e+01 1.050000e+01
      vertex   9.070000e+01 4.778933e+01 6.000000e+00
    endloop
  endfacet
  facet normal 1.000000e+00 0.000000e+00 0.000000e+00
    outer loop
      vertex   9.070000e+01 5.259755e+01 8.543207e+00
      vertex   9.070000e+01 4.778933e+01 6.000000e+00
      vertex   9.070000e+01 5.262211e+01 8.388132e+00
    endloop
  endfacet
  facet normal 1.000000e+00 0.000000e+00 0.000000e+00
    outer loop
      vertex   9.070000e+01 5.262211e+01 8.388132e+00
      vertex   9.070000e+01 4.778933e+01 6.000000e+00
      vertex   9.070000e+01 5.266275e+01 8.236475e+00
    endloop
  endfacet
  facet normal 1.000000e+00 0.000000e+00 0.000000e+00
    outer loop
      vertex   9.070000e+01 5.266275e+01 8.236475e+00
      vertex   9.070000e+01 4.778933e+01 6.000000e+00
      vertex   9.070000e+01 5.271901e+01 8.089895e+00
    endloop
  endfacet
  facet normal 1.000000e+00 0.000000e+00 0.000000e+00
    outer loop
      vertex   9.070000e+01 5.271901e+01 8.089895e+00
      vertex   9.070000e+01 4.778933e+01 6.000000e+00
      vertex   9.070000e+01 5.278933e+01 7.200000e+00
    endloop
  endfacet
  facet normal 1.000000e+00 0.000000e+00 0.000000e+00
    outer loop
      vertex   9.070000e+01 5.271901e+01 8.089895e+00
      vertex   9.070000e+01 5.278933e+01 7.200000e+00
      vertex   9.070000e+01 5.279029e+01 7.950000e+00
    endloop
  endfacet
  facet normal 1.000000e+00 0.000000e+00 0.000000e+00
    outer loop
      vertex   9.070000e+01 5.279029e+01 7.950000e+00
      vertex   9.070000e+01 5.278933e+01 7.200000e+00
      vertex   9.070000e+01 5.287580e+01 7.818322e+00
    endloop
  endfacet
  facet normal 1.000000e+00 0.000000e+00 0.000000e+00
    outer loop
      vertex   9.070000e+01 5.287580e+01 7.818322e+00
      vertex   9.070000e+01 5.278933e+01 7.200000e+00
      vertex   9.070000e+01 5.297461e+01 7.696304e+00
    endloop
  endfacet
  facet normal 1.000000e+00 0.000000e+00 0.000000e+00
    outer loop
      vertex   9.070000e+01 5.297461e+01 7.696304e+00
      vertex   9.070000e+01 5.278933e+01 7.200000e+00
      vertex   9.070000e+01 5.308563e+01 7.585283e+00
    endloop
  endfacet
  facet normal 1.000000e+00 0.000000e+00 0.000000e+00
    outer loop
      vertex   9.070000e+01 5.308563e+01 7.585283e+00
      vertex   9.070000e+01 5.278933e+01 7.200000e+00
      vertex   9.070000e+01 5.320765e+01 7.486475e+00
    endloop
  endfacet
  facet normal 1.000000e+00 0.000000e+00 0.000000e+00
    outer loop
      vertex   9.070000e+01 5.320765e+01 7.486475e+00
      vertex   9.070000e+01 5.278933e+01 7.200000e+00
      vertex   9.070000e+01 5.333933e+01 7.400962e+00
    endloop
  endfacet
  facet normal 1.000000e+00 0.000000e+00 0.000000e+00
    outer loop
      vertex   9.070000e+01 5.333933e+01 7.400962e+00
      vertex   9.070000e+01 5.278933e+01 7.200000e+00
      vertex   9.070000e+01 5.347923e+01 7.329682e+00
    endloop
  endfacet
  facet normal 1.000000e+00 0.000000e+00 0.000000e+00
    outer loop
      vertex   9.070000e+01 5.347923e+01 7.329682e+00
      vertex   9.070000e+01 5.278933e+01 7.200000e+00
      vertex   9.070000e+01 5.362580e+01 7.273415e+00
    endloop
  endfacet
  facet normal 1.000000e+00 0.000000e+00 0.000000e+00
    outer loop
      vertex   9.070000e+01 5.362580e+01 7.273415e+00
      vertex   9.070000e+01 5.278933e+01 7.200000e+00
      vertex   9.070000e+01 5.377746e+01 7.232779e+00
    endloop
  endfacet
  facet normal 1.000000e+00 0.000000e+00 0.000000e+00
    outer loop
      vertex   9.070000e+01 5.377746e+01 7.232779e+00
      vertex   9.070000e+01 5.278933e+01 7.200000e+00
      vertex   9.070000e+01 5.393254e+01 7.208217e+00
    endloop
  endfacet
  facet normal 1.000000e+00 0.000000e+00 0.000000e+00
    outer loop
      vertex   9.070000e+01 5.393254e+01 7.208217e+00
      vertex   9.070000e+01 5.278933e+01 7.200000e+00
      vertex   9.070000e+01 5.408933e+01 7.200000e+00
    endloop
  endfacet
  facet normal 1.000000e+00 -0.000000e+00 0.000000e+00
    outer loop
      vertex   9.070000e+01 4.778933e+01 6.000000e+00
      vertex   9.070000e+01 5.278933e+01 6.000000e+00
      vertex   9.070000e+01 5.278933e+01 7.200000e+00
    endloop
  endfacet
  facet normal 0.000000e+00 -8.881784e-16 -1.000000e+00
    outer loop
      vertex   8.950000e+01 5.408933e+01 1.050000e+01
      vertex   8.950000e+01 6.008933e+01 1.050000e+01
      vertex   9.070000e+01 5.408933e+01 1.050000e+01
    endloop
  endfacet
  facet normal 0.000000e+00 -8.881784e-16 -1.000000e+00
    outer loop
      vertex   9.070000e+01 5.408933e+01 1.050000e+01
      vertex   8.950000e+01 6.008933e+01 1.050000e+01
      vertex   9.070000e+01 6.008933e+01 1.050000e+01
    endloop
  endfacet
  facet normal -2.331468e-15 -8.881784e-16 -1.000000e+00
    outer loop
      vertex   9.070000e+01 5.408933e+01 1.050000e+01
      vertex   9.070000e+01 6.008933e+01 1.050000e+01
      vertex   9.310000e+01 4.778933e+01 1.050000e+01
    endloop
  endfacet
  facet normal 2.220446e-15 0.000000e+00 -1.000000e+00
    outer loop
      vertex   9.310000e+01 4.778933e+01 1.050000e+01
      vertex   9.070000e+01 6.008933e+01 1.050000e+01
      vertex   9.310000e+01 6.638933e+01 1.050000e+01
    endloop
  endfacet
  facet normal 0.000000e+00 8.458842e-16 -1.000000e+00
    outer loop
      vertex   9.310000e+01 6.638933e+01 1.050000e+01
      vertex   9.070000e+01 6.008933e+01 1.050000e+01
      vertex   9.070000e+01 6.638933e+01 1.050000e+01
    endloop
  endfacet
  facet normal 0.000000e+00 0.000000e+00 -1.000000e+00
    outer loop
      vertex   9.310000e+01 4.778933e+01 1.050000e+01
      vertex   9.070000e+01 4.778933e+01 1.050000e+01
      vertex   9.070000e+01 5.408933e+01 1.050000e+01
    endloop
  endfacet
  facet normal 0.000000e+00 9.986295e-01 -5.233596e-02
    outer loop
      vertex   9.070000e+01 5.258933e+01 9.000000e+00
      vertex   8.950000e+01 5.258933e+01 9.000000e+00
      vertex   9.070000e+01 5.259755e+01 9.156793e+00
    endloop
  endfacet
  facet normal 0.000000e+00 9.986295e-01 -5.233596e-02
    outer loop
      vertex   9.070000e+01 5.259755e+01 9.156793e+00
      vertex   8.950000e+01 5.258933e+01 9.000000e+00
      vertex   8.950000e+01 5.259755e+01 9.156793e+00
    endloop
  endfacet
  facet normal 0.000000e+00 9.876883e-01 -1.564345e-01
    outer loop
      vertex   9.070000e+01 5.259755e+01 9.156793e+00
      vertex   8.950000e+01 5.259755e+01 9.156793e+00
      vertex   9.070000e+01 5.262211e+01 9.311868e+00
    endloop
  endfacet
  facet normal 0.000000e+00 9.876883e-01 -1.564345e-01
    outer loop
      vertex   9.070000e+01 5.262211e+01 9.311868e+00
      vertex   8.950000e+01 5.259755e+01 9.156793e+00
      vertex   8.950000e+01 5.262211e+01 9.311868e+00
    endloop
  endfacet
  facet normal 0.000000e+00 9.659258e-01 -2.588190e-01
    outer loop
      vertex   9.070000e+01 5.262211e+01 9.311868e+00
      vertex   8.950000e+01 5.262211e+01 9.311868e+00
      vertex   9.070000e+01 5.266275e+01 9.463525e+00
    endloop
  endfacet
  facet normal 0.000000e+00 9.659258e-01 -2.588190e-01
    outer loop
      vertex   9.070000e+01 5.266275e+01 9.463525e+00
      vertex   8.950000e+01 5.262211e+01 9.311868e+00
      vertex   8.950000e+01 5.266275e+01 9.463525e+00
    endloop
  endfacet
  facet normal 0.000000e+00 9.335804e-01 -3.583679e-01
    outer loop
      vertex   9.070000e+01 5.266275e+01 9.463525e+00
      vertex   8.950000e+01 5.266275e+01 9.463525e+00
      vertex   9.070000e+01 5.271901e+01 9.610105e+00
    endloop
  endfacet
  facet normal 0.000000e+00 9.335804e-01 -3.583679e-01
    outer loop
      vertex   9.070000e+01 5.271901e+01 9.610105e+00
      vertex   8.950000e+01 5.266275e+01 9.463525e+00
      vertex   8.950000e+01 5.271901e+01 9.610105e+00
    endloop
  endfacet
  facet normal 0.000000e+00 8.910065e-01 -4.539905e-01
    outer loop
      vertex   9.070000e+01 5.271901e+01 9.610105e+00
      vertex   8.950000e+01 5.271901e+01 9.610105e+00
      vertex   9.070000e+01 5.279029e+01 9.750000e+00
    endloop
  endfacet
  facet normal 6.720409e-16 8.910065e-01 -4.539905e-01
    outer loop
      vertex   9.070000e+01 5.279029e+01 9.750000e+00
      vertex   8.950000e+01 5.271901e+01 9.610105e+00
      vertex   8.950000e+01 5.279029e+01 9.750000e+00
    endloop
  endfacet
  facet normal 8.062277e-16 8.386706e-01 -5.446390e-01
    outer loop
      vertex   9.070000e+01 5.279029e+01 9.750000e+00
      vertex   8.950000e+01 5.279029e+01 9.750000e+00
      vertex   9.070000e+01 5.287580e+01 9.881678e+00
    endloop
  endfacet
  facet normal 0.000000e+00 8.386706e-01 -5.446390e-01
    outer loop
      vertex   9.070000e+01 5.287580e+01 9.881678e+00
      vertex   8.950000e+01 5.279029e+01 9.750000e+00
      vertex   8.950000e+01 5.287580e+01 9.881678e+00
    endloop
  endfacet
  facet normal 0.000000e+00 7.771460e-01 -6.293204e-01
    outer loop
      vertex   9.070000e+01 5.287580e+01 9.881678e+00
      vertex   8.950000e+01 5.287580e+01 9.881678e+00
      vertex   9.070000e+01 5.297461e+01 1.000370e+01
    endloop
  endfacet
  facet normal 0.000000e+00 7.771460e-01 -6.293204e-01
    outer loop
      vertex   9.070000e+01 5.297461e+01 1.000370e+01
      vertex   8.950000e+01 5.287580e+01 9.881678e+00
      vertex   8.950000e+01 5.297461e+01 1.000370e+01
    endloop
  endfacet
  facet normal 0.000000e+00 7.071068e-01 -7.071068e-01
    outer loop
      vertex   9.070000e+01 5.297461e+01 1.000370e+01
      vertex   8.950000e+01 5.297461e+01 1.000370e+01
      vertex   9.070000e+01 5.308563e+01 1.011472e+01
    endloop
  endfacet
  facet normal 0.000000e+00 7.071068e-01 -7.071068e-01
    outer loop
      vertex   9.070000e+01 5.308563e+01 1.011472e+01
      vertex   8.950000e+01 5.297461e+01 1.000370e+01
      vertex   8.950000e+01 5.308563e+01 1.011472e+01
    endloop
  endfacet
  facet normal 0.000000e+00 6.293204e-01 -7.771460e-01
    outer loop
      vertex   9.070000e+01 5.308563e+01 1.011472e+01
      vertex   8.950000e+01 5.308563e+01 1.011472e+01
      vertex   9.070000e+01 5.320765e+01 1.021353e+01
    endloop
  endfacet
  facet normal 0.000000e+00 6.293204e-01 -7.771460e-01
    outer loop
      vertex   9.070000e+01 5.320765e+01 1.021353e+01
      vertex   8.950000e+01 5.308563e+01 1.011472e+01
      vertex   8.950000e+01 5.320765e+01 1.021353e+01
    endloop
  endfacet
  facet normal 0.000000e+00 5.446390e-01 -8.386706e-01
    outer loop
      vertex   9.070000e+01 5.320765e+01 1.021353e+01
      vertex   8.950000e+01 5.320765e+01 1.021353e+01
      vertex   9.070000e+01 5.333933e+01 1.029904e+01
    endloop
  endfacet
  facet normal 0.000000e+00 5.446390e-01 -8.386706e-01
    outer loop
      vertex   9.070000e+01 5.333933e+01 1.029904e+01
      vertex   8.950000e+01 5.320765e+01 1.021353e+01
      vertex   8.950000e+01 5.333933e+01 1.029904e+01
    endloop
  endfacet
  facet normal 0.000000e+00 4.539905e-01 -8.910065e-01
    outer loop
      vertex   9.070000e+01 5.333933e+01 1.029904e+01
      vertex   8.950000e+01 5.333933e+01 1.029904e+01
      vertex   9.070000e+01 5.347923e+01 1.037032e+01
    endloop
  endfacet
  facet normal 0.000000e+00 4.539905e-01 -8.910065e-01
    outer loop
      vertex   9.070000e+01 5.347923e+01 1.037032e+01
      vertex   8.950000e+01 5.333933e+01 1.029904e+01
      vertex   8.950000e+01 5.347923e+01 1.037032e+01
    endloop
  endfacet
  facet normal 0.000000e+00 3.583679e-01 -9.335804e-01
    outer loop
      vertex   9.070000e+01 5.347923e+01 1.037032e+01
      vertex   8.950000e+01 5.347923e+01 1.037032e+01
      vertex   9.070000e+01 5.362580e+01 1.042658e+01
    endloop
  endfacet
  facet normal 0.000000e+00 3.583679e-01 -9.335804e-01
    outer loop
      vertex   9.070000e+01 5.362580e+01 1.042658e+01
      vertex   8.950000e+01 5.347923e+01 1.037032e+01
      vertex   8.950000e+01 5.362580e+01 1.042658e+01
    endloop
  endfacet
  facet normal 0.000000e+00 2.588190e-01 -9.659258e-01
    outer loop
      vertex   9.070000e+01 5.362580e+01 1.042658e+01
      vertex   8.950000e+01 5.362580e+01 1.042658e+01
      vertex   9.070000e+01 5.377746e+01 1.046722e+01
    endloop
  endfacet
  facet normal 0.000000e+00 2.588190e-01 -9.659258e-01
    outer loop
      vertex   9.070000e+01 5.377746e+01 1.046722e+01
      vertex   8.950000e+01 5.362580e+01 1.042658e+01
      vertex   8.950000e+01 5.377746e+01 1.046722e+01
    endloop
  endfacet
  facet normal 0.000000e+00 1.564345e-01 -9.876883e-01
    outer loop
      vertex   9.070000e+01 5.377746e+01 1.046722e+01
      vertex   8.950000e+01 5.377746e+01 1.046722e+01
      vertex   9.070000e+01 5.393254e+01 1.049178e+01
    endloop
  endfacet
  facet normal 0.000000e+00 1.564345e-01 -9.876883e-01
    outer loop
      vertex   9.070000e+01 5.393254e+01 1.049178e+01
      vertex   8.950000e+01 5.377746e+01 1.046722e+01
      vertex   8.950000e+01 5.393254e+01 1.049178e+01
    endloop
  endfacet
  facet normal 0.000000e+00 5.233596e-02 -9.986295e-01
    outer loop
      vertex   9.070000e+01 5.393254e+01 1.049178e+01
      vertex   8.950000e+01 5.393254e+01 1.049178e+01
      vertex   9.070000e+01 5.408933e+01 1.050000e+01
    endloop
  endfacet
  facet normal 0.000000e+00 5.233596e-02 -9.986295e-01
    outer loop
      vertex   9.070000e+01 5.408933e+01 1.050000e+01
      vertex   8.950000e+01 5.393254e+01 1.049178e+01
      vertex   8.950000e+01 5.408933e+01 1.050000e+01
    endloop
  endfacet
  facet normal 0.000000e+00 1.000000e+00 0.000000e+00
    outer loop
      vertex   8.950000e+01 5.258933e+01 8.700000e+00
      vertex   8.950000e+01 5.258933e+01 9.000000e+00
      vertex   9.070000e+01 5.258933e+01 8.700000e+00
    endloop
  endfacet
  facet normal 0.000000e+00 1.000000e+00 -0.000000e+00
    outer loop
      vertex   9.070000e+01 5.258933e+01 8.700000e+00
      vertex   8.950000e+01 5.258933e+01 9.000000e+00
      vertex   9.070000e+01 5.258933e+01 9.000000e+00
    endloop
  endfacet
  facet normal 0.000000e+00 5.233596e-02 9.986295e-01
    outer loop
      vertex   9.070000e+01 5.408933e+01 7.200000e+00
      vertex   8.950000e+01 5.408933e+01 7.200000e+00
      vertex   9.070000e+01 5.393254e+01 7.208217e+00
    endloop
  endfacet
  facet normal 0.000000e+00 5.233596e-02 9.986295e-01
    outer loop
      vertex   9.070000e+01 5.393254e+01 7.208217e+00
      vertex   8.950000e+01 5.408933e+01 7.200000e+00
      vertex   8.950000e+01 5.393254e+01 7.208217e+00
    endloop
  endfacet
  facet normal 0.000000e+00 1.564345e-01 9.876883e-01
    outer loop
      vertex   9.070000e+01 5.393254e+01 7.208217e+00
      vertex   8.950000e+01 5.393254e+01 7.208217e+00
      vertex   9.070000e+01 5.377746e+01 7.232779e+00
    endloop
  endfacet
  facet normal 0.000000e+00 1.564345e-01 9.876883e-01
    outer loop
      vertex   9.070000e+01 5.377746e+01 7.232779e+00
      vertex   8.950000e+01 5.393254e+01 7.208217e+00
      vertex   8.950000e+01 5.377746e+01 7.232779e+00
    endloop
  endfacet
  facet normal 0.000000e+00 2.588190e-01 9.659258e-01
    outer loop
      vertex   9.070000e+01 5.377746e+01 7.232779e+00
      vertex   8.950000e+01 5.377746e+01 7.232779e+00
      vertex   9.070000e+01 5.362580e+01 7.273415e+00
    endloop
  endfacet
  facet normal 0.000000e+00 2.588190e-01 9.659258e-01
    outer loop
      vertex   9.070000e+01 5.362580e+01 7.273415e+00
      vertex   8.950000e+01 5.377746e+01 7.232779e+00
      vertex   8.950000e+01 5.362580e+01 7.273415e+00
    endloop
  endfacet
  facet normal 0.000000e+00 3.583679e-01 9.335804e-01
    outer loop
      vertex   9.070000e+01 5.362580e+01 7.273415e+00
      vertex   8.950000e+01 5.362580e+01 7.273415e+00
      vertex   9.070000e+01 5.347923e+01 7.329682e+00
    endloop
  endfacet
  facet normal 0.000000e+00 3.583679e-01 9.335804e-01
    outer loop
      vertex   9.070000e+01 5.347923e+01 7.329682e+00
      vertex   8.950000e+01 5.362580e+01 7.273415e+00
      vertex   8.950000e+01 5.347923e+01 7.329682e+00
    endloop
  endfacet
  facet normal 0.000000e+00 4.539905e-01 8.910065e-01
    outer loop
      vertex   9.070000e+01 5.347923e+01 7.329682e+00
      vertex   8.950000e+01 5.347923e+01 7.329682e+00
      vertex   9.070000e+01 5.333933e+01 7.400962e+00
    endloop
  endfacet
  facet normal 0.000000e+00 4.539905e-01 8.910065e-01
    outer loop
      vertex   9.070000e+01 5.333933e+01 7.400962e+00
      vertex   8.950000e+01 5.347923e+01 7.329682e+00
      vertex   8.950000e+01 5.333933e+01 7.400962e+00
    endloop
  endfacet
  facet normal 0.000000e+00 5.446390e-01 8.386706e-01
    outer loop
      vertex   9.070000e+01 5.333933e+01 7.400962e+00
      vertex   8.950000e+01 5.333933e+01 7.400962e+00
      vertex   9.070000e+01 5.320765e+01 7.486475e+00
    endloop
  endfacet
  facet normal 0.000000e+00 5.446390e-01 8.386706e-01
    outer loop
      vertex   9.070000e+01 5.320765e+01 7.486475e+00
      vertex   8.950000e+01 5.333933e+01 7.400962e+00
      vertex   8.950000e+01 5.320765e+01 7.486475e+00
    endloop
  endfacet
  facet normal 0.000000e+00 6.293204e-01 7.771460e-01
    outer loop
      vertex   9.070000e+01 5.320765e+01 7.486475e+00
      vertex   8.950000e+01 5.320765e+01 7.486475e+00
      vertex   9.070000e+01 5.308563e+01 7.585283e+00
    endloop
  endfacet
  facet normal 0.000000e+00 6.293204e-01 7.771460e-01
    outer loop
      vertex   9.070000e+01 5.308563e+01 7.585283e+00
      vertex   8.950000e+01 5.320765e+01 7.486475e+00
      vertex   8.950000e+01 5.308563e+01 7.585283e+00
    endloop
  endfacet
  facet normal 0.000000e+00 7.071068e-01 7.071068e-01
    outer loop
      vertex   9.070000e+01 5.308563e+01 7.585283e+00
      vertex   8.950000e+01 5.308563e+01 7.585283e+00
      vertex   9.070000e+01 5.297461e+01 7.696304e+00
    endloop
  endfacet
  facet normal 0.000000e+00 7.071068e-01 7.071068e-01
    outer loop
      vertex   9.070000e+01 5.297461e+01 7.696304e+00
      vertex   8.950000e+01 5.308563e+01 7.585283e+00
      vertex   8.950000e+01 5.297461e+01 7.696304e+00
    endloop
  endfacet
  facet normal 0.000000e+00 7.771460e-01 6.293204e-01
    outer loop
      vertex   9.070000e+01 5.297461e+01 7.696304e+00
      vertex   8.950000e+01 5.297461e+01 7.696304e+00
      vertex   9.070000e+01 5.287580e+01 7.818322e+00
    endloop
  endfacet
  facet normal 0.000000e+00 7.771460e-01 6.293204e-01
    outer loop
      vertex   9.070000e+01 5.287580e+01 7.818322e+00
      vertex   8.950000e+01 5.297461e+01 7.696304e+00
      vertex   8.950000e+01 5.287580e+01 7.818322e+00
    endloop
  endfacet
  facet normal 0.000000e+00 8.386706e-01 5.446390e-01
    outer loop
      vertex   9.070000e+01 5.287580e+01 7.818322e+00
      vertex   8.950000e+01 5.287580e+01 7.818322e+00
      vertex   9.070000e+01 5.279029e+01 7.950000e+00
    endloop
  endfacet
  facet normal 0.000000e+00 8.386706e-01 5.446390e-01
    outer loop
      vertex   9.070000e+01 5.279029e+01 7.950000e+00
      vertex   8.950000e+01 5.287580e+01 7.818322e+00
      vertex   8.950000e+01 5.279029e+01 7.950000e+00
    endloop
  endfacet
  facet normal 0.000000e+00 8.910065e-01 4.539905e-01
    outer loop
      vertex   9.070000e+01 5.279029e+01 7.950000e+00
      vertex   8.950000e+01 5.279029e+01 7.950000e+00
      vertex   9.070000e+01 5.271901e+01 8.089895e+00
    endloop
  endfacet
  facet normal 0.000000e+00 8.910065e-01 4.539905e-01
    outer loop
      vertex   9.070000e+01 5.271901e+01 8.089895e+00
      vertex   8.950000e+01 5.279029e+01 7.950000e+00
      vertex   8.950000e+01 5.271901e+01 8.089895e+00
    endloop
  endfacet
  facet normal 0.000000e+00 9.335804e-01 3.583679e-01
    outer loop
      vertex   9.070000e+01 5.271901e+01 8.089895e+00
      vertex   8.950000e+01 5.271901e+01 8.089895e+00
      vertex   9.070000e+01 5.266275e+01 8.236475e+00
    endloop
  endfacet
  facet normal 0.000000e+00 9.335804e-01 3.583679e-01
    outer loop
      vertex   9.070000e+01 5.266275e+01 8.236475e+00
      vertex   8.950000e+01 5.271901e+01 8.089895e+00
      vertex   8.950000e+01 5.266275e+01 8.236475e+00
    endloop
  endfacet
  facet normal 0.000000e+00 9.659258e-01 2.588190e-01
    outer loop
      vertex   9.070000e+01 5.266275e+01 8.236475e+00
      vertex   8.950000e+01 5.266275e+01 8.236475e+00
      vertex   9.070000e+01 5.262211e+01 8.388132e+00
    endloop
  endfacet
  facet normal 0.000000e+00 9.659258e-01 2.588190e-01
    outer loop
      vertex   9.070000e+01 5.262211e+01 8.388132e+00
      vertex   8.950000e+01 5.266275e+01 8.236475e+00
      vertex   8.950000e+01 5.262211e+01 8.388132e+00
    endloop
  endfacet
  facet normal 0.000000e+00 9.876883e-01 1.564345e-01
    outer loop
      vertex   9.070000e+01 5.262211e+01 8.388132e+00
      vertex   8.950000e+01 5.262211e+01 8.388132e+00
      vertex   9.070000e+01 5.259755e+01 8.543207e+00
    endloop
  endfacet
  facet normal 0.000000e+00 9.876883e-01 1.564345e-01
    outer loop
      vertex   9.070000e+01 5.259755e+01 8.543207e+00
      vertex   8.950000e+01 5.262211e+01 8.388132e+00
      vertex   8.950000e+01 5.259755e+01 8.543207e+00
    endloop
  endfacet
  facet normal 0.000000e+00 9.986295e-01 5.233596e-02
    outer loop
      vertex   9.070000e+01 5.259755e+01 8.543207e+00
      vertex   8.950000e+01 5.259755e+01 8.543207e+00
      vertex   9.070000e+01 5.258933e+01 8.700000e+00
    endloop
  endfacet
  facet normal 0.000000e+00 9.986295e-01 5.233596e-02
    outer loop
      vertex   9.070000e+01 5.258933e+01 8.700000e+00
      vertex   8.950000e+01 5.259755e+01 8.543207e+00
      vertex   8.950000e+01 5.258933e+01 8.700000e+00
    endloop
  endfacet
  facet normal 0.000000e+00 -9.986295e-01 5.233596e-02
    outer loop
      vertex   9.070000e+01 6.158933e+01 8.700000e+00
      vertex   8.950000e+01 6.158933e+01 8.700000e+00
      vertex   9.070000e+01 6.158111e+01 8.543207e+00
    endloop
  endfacet
  facet normal 0.000000e+00 -9.986295e-01 5.233596e-02
    outer loop
      vertex   9.070000e+01 6.158111e+01 8.543207e+00
      vertex   8.950000e+01 6.158933e+01 8.700000e+00
      vertex   8.950000e+01 6.158111e+01 8.543207e+00
    endloop
  endfacet
  facet normal 0.000000e+00 -9.876883e-01 1.564345e-01
    outer loop
      vertex   9.070000e+01 6.158111e+01 8.543207e+00
      vertex   8.950000e+01 6.158111e+01 8.543207e+00
      vertex   9.070000e+01 6.155655e+01 8.388132e+00
    endloop
  endfacet
  facet normal 0.000000e+00 -9.876883e-01 1.564345e-01
    outer loop
      vertex   9.070000e+01 6.155655e+01 8.388132e+00
      vertex   8.950000e+01 6.158111e+01 8.543207e+00
      vertex   8.950000e+01 6.155655e+01 8.388132e+00
    endloop
  endfacet
  facet normal 0.000000e+00 -9.659258e-01 2.588190e-01
    outer loop
      vertex   9.070000e+01 6.155655e+01 8.388132e+00
      vertex   8.950000e+01 6.155655e+01 8.388132e+00
      vertex   9.070000e+01 6.151591e+01 8.236475e+00
    endloop
  endfacet
  facet normal 0.000000e+00 -9.659258e-01 2.588190e-01
    outer loop
      vertex   9.070000e+01 6.151591e+01 8.236475e+00
      vertex   8.950000e+01 6.155655e+01 8.388132e+00
      vertex   8.950000e+01 6.151591e+01 8.236475e+00
    endloop
  endfacet
  facet normal 0.000000e+00 -9.335804e-01 3.583679e-01
    outer loop
      vertex   9.070000e+01 6.151591e+01 8.236475e+00
      vertex   8.950000e+01 6.151591e+01 8.236475e+00
      vertex   9.070000e+01 6.145965e+01 8.089895e+00
    endloop
  endfacet
  facet normal 0.000000e+00 -9.335804e-01 3.583679e-01
    outer loop
      vertex   9.070000e+01 6.145965e+01 8.089895e+00
      vertex   8.950000e+01 6.151591e+01 8.236475e+00
      vertex   8.950000e+01 6.145965e+01 8.089895e+00
    endloop
  endfacet
  facet normal 0.000000e+00 -8.910065e-01 4.539905e-01
    outer loop
      vertex   9.070000e+01 6.145965e+01 8.089895e+00
      vertex   8.950000e+01 6.145965e+01 8.089895e+00
      vertex   9.070000e+01 6.138837e+01 7.950000e+00
    endloop
  endfacet
  facet normal 6.720409e-16 -8.910065e-01 4.539905e-01
    outer loop
      vertex   9.070000e+01 6.138837e+01 7.950000e+00
      vertex   8.950000e+01 6.145965e+01 8.089895e+00
      vertex   8.950000e+01 6.138837e+01 7.950000e+00
    endloop
  endfacet
  facet normal 8.062277e-16 -8.386706e-01 5.446390e-01
    outer loop
      vertex   9.070000e+01 6.138837e+01 7.950000e+00
      vertex   8.950000e+01 6.138837e+01 7.950000e+00
      vertex   9.070000e+01 6.130286e+01 7.818322e+00
    endloop
  endfacet
  facet normal 0.000000e+00 -8.386706e-01 5.446390e-01
    outer loop
      vertex   9.070000e+01 6.130286e+01 7.818322e+00
      vertex   8.950000e+01 6.138837e+01 7.950000e+00
      vertex   8.950000e+01 6.130286e+01 7.818322e+00
    endloop
  endfacet
  facet normal 0.000000e+00 -7.771460e-01 6.293204e-01
    outer loop
      vertex   9.070000e+01 6.130286e+01 7.818322e+00
      vertex   8.950000e+01 6.130286e+01 7.818322e+00
      vertex   9.070000e+01 6.120405e+01 7.696304e+00
    endloop
  endfacet
  facet normal 4.657907e-16 -7.771460e-01 6.293204e-01
    outer loop
      vertex   9.070000e+01 6.120405e+01 7.696304e+00
      vertex   8.950000e+01 6.130286e+01 7.818322e+00
      vertex   8.950000e+01 6.120405e+01 7.696304e+00
    endloop
  endfacet
  facet normal 5.233642e-16 -7.071068e-01 7.071068e-01
    outer loop
      vertex   9.070000e+01 6.120405e+01 7.696304e+00
      vertex   8.950000e+01 6.120405e+01 7.696304e+00
      vertex   9.070000e+01 6.109303e+01 7.585283e+00
    endloop
  endfacet
  facet normal 0.000000e+00 -7.071068e-01 7.071068e-01
    outer loop
      vertex   9.070000e+01 6.109303e+01 7.585283e+00
      vertex   8.950000e+01 6.120405e+01 7.696304e+00
      vertex   8.950000e+01 6.109303e+01 7.585283e+00
    endloop
  endfacet
  facet normal 0.000000e+00 -6.293204e-01 7.771460e-01
    outer loop
      vertex   9.070000e+01 6.109303e+01 7.585283e+00
      vertex   8.950000e+01 6.109303e+01 7.585283e+00
      vertex   9.070000e+01 6.097101e+01 7.486475e+00
    endloop
  endfacet
  facet normal 0.000000e+00 -6.293204e-01 7.771460e-01
    outer loop
      vertex   9.070000e+01 6.097101e+01 7.486475e+00
      vertex   8.950000e+01 6.109303e+01 7.585283e+00
      vertex   8.950000e+01 6.097101e+01 7.486475e+00
    endloop
  endfacet
  facet normal 0.000000e+00 -5.446390e-01 8.386706e-01
    outer loop
      vertex   9.070000e+01 6.097101e+01 7.486475e+00
      vertex   8.950000e+01 6.097101e+01 7.486475e+00
      vertex   9.070000e+01 6.083933e+01 7.400962e+00
    endloop
  endfacet
  facet normal 0.000000e+00 -5.446390e-01 8.386706e-01
    outer loop
      vertex   9.070000e+01 6.083933e+01 7.400962e+00
      vertex   8.950000e+01 6.097101e+01 7.486475e+00
      vertex   8.950000e+01 6.083933e+01 7.400962e+00
    endloop
  endfacet
  facet normal 0.000000e+00 -4.539905e-01 8.910065e-01
    outer loop
      vertex   9.070000e+01 6.083933e+01 7.400962e+00
      vertex   8.950000e+01 6.083933e+01 7.400962e+00
      vertex   9.070000e+01 6.069943e+01 7.329682e+00
    endloop
  endfacet
  facet normal 0.000000e+00 -4.539905e-01 8.910065e-01
    outer loop
      vertex   9.070000e+01 6.069943e+01 7.329682e+00
      vertex   8.950000e+01 6.083933e+01 7.400962e+00
      vertex   8.950000e+01 6.069943e+01 7.329682e+00
    endloop
  endfacet
  facet normal 0.000000e+00 -3.583679e-01 9.335804e-01
    outer loop
      vertex   9.070000e+01 6.069943e+01 7.329682e+00
      vertex   8.950000e+01 6.069943e+01 7.329682e+00
      vertex   9.070000e+01 6.055286e+01 7.273415e+00
    endloop
  endfacet
  facet normal 0.000000e+00 -3.583679e-01 9.335804e-01
    outer loop
      vertex   9.070000e+01 6.055286e+01 7.273415e+00
      vertex   8.950000e+01 6.069943e+01 7.329682e+00
      vertex   8.950000e+01 6.055286e+01 7.273415e+00
    endloop
  endfacet
  facet normal 0.000000e+00 -2.588190e-01 9.659258e-01
    outer loop
      vertex   9.070000e+01 6.055286e+01 7.273415e+00
      vertex   8.950000e+01 6.055286e+01 7.273415e+00
      vertex   9.070000e+01 6.040120e+01 7.232779e+00
    endloop
  endfacet
  facet normal 0.000000e+00 -2.588190e-01 9.659258e-01
    outer loop
      vertex   9.070000e+01 6.040120e+01 7.232779e+00
      vertex   8.950000e+01 6.055286e+01 7.273415e+00
      vertex   8.950000e+01 6.040120e+01 7.232779e+00
    endloop
  endfacet
  facet normal 0.000000e+00 -1.564345e-01 9.876883e-01
    outer loop
      vertex   9.070000e+01 6.040120e+01 7.232779e+00
      vertex   8.950000e+01 6.040120e+01 7.232779e+00
      vertex   9.070000e+01 6.024612e+01 7.208217e+00
    endloop
  endfacet
  facet normal 0.000000e+00 -1.564345e-01 9.876883e-01
    outer loop
      vertex   9.070000e+01 6.024612e+01 7.208217e+00
      vertex   8.950000e+01 6.040120e+01 7.232779e+00
      vertex   8.950000e+01 6.024612e+01 7.208217e+00
    endloop
  endfacet
  facet normal 0.000000e+00 -5.233596e-02 9.986295e-01
    outer loop
      vertex   9.070000e+01 6.024612e+01 7.208217e+00
      vertex   8.950000e+01 6.024612e+01 7.208217e+00
      vertex   9.070000e+01 6.008933e+01 7.200000e+00
    endloop
  endfacet
  facet normal 0.000000e+00 -5.233596e-02 9.986295e-01
    outer loop
      vertex   9.070000e+01 6.008933e+01 7.200000e+00
      vertex   8.950000e+01 6.024612e+01 7.208217e+00
      vertex   8.950000e+01 6.008933e+01 7.200000e+00
    endloop
  endfacet
  facet normal 0.000000e+00 -1.000000e+00 -2.368476e-14
    outer loop
      vertex   8.950000e+01 6.158933e+01 9.000000e+00
      vertex   8.950000e+01 6.158933e+01 8.700000e+00
      vertex   9.070000e+01 6.158933e+01 9.000000e+00
    endloop
  endfacet
  facet normal 0.000000e+00 -1.000000e+00 -2.368476e-14
    outer loop
      vertex   9.070000e+01 6.158933e+01 9.000000e+00
      vertex   8.950000e+01 6.158933e+01 8.700000e+00
      vertex   9.070000e+01 6.158933e+01 8.700000e+00
    endloop
  endfacet
  facet normal -0.000000e+00 -5.233596e-02 -9.986295e-01
    outer loop
      vertex   9.070000e+01 6.008933e+01 1.050000e+01
      vertex   8.950000e+01 6.008933e+01 1.050000e+01
      vertex   9.070000e+01 6.024612e+01 1.049178e+01
    endloop
  endfacet
  facet normal -0.000000e+00 -5.233596e-02 -9.986295e-01
    outer loop
      vertex   9.070000e+01 6.024612e+01 1.049178e+01
      vertex   8.950000e+01 6.008933e+01 1.050000e+01
      vertex   8.950000e+01 6.024612e+01 1.049178e+01
    endloop
  endfacet
  facet normal -0.000000e+00 -1.564345e-01 -9.876883e-01
    outer loop
      vertex   9.070000e+01 6.024612e+01 1.049178e+01
      vertex   8.950000e+01 6.024612e+01 1.049178e+01
      vertex   9.070000e+01 6.040120e+01 1.046722e+01
    endloop
  endfacet
  facet normal -0.000000e+00 -1.564345e-01 -9.876883e-01
    outer loop
      vertex   9.070000e+01 6.040120e+01 1.046722e+01
      vertex   8.950000e+01 6.024612e+01 1.049178e+01
      vertex   8.950000e+01 6.040120e+01 1.046722e+01
    endloop
  endfacet
  facet normal -0.000000e+00 -2.588190e-01 -9.659258e-01
    outer loop
      vertex   9.070000e+01 6.040120e+01 1.046722e+01
      vertex   8.950000e+01 6.040120e+01 1.046722e+01
      vertex   9.070000e+01 6.055286e+01 1.042658e+01
    endloop
  endfacet
  facet normal -0.000000e+00 -2.588190e-01 -9.659258e-01
    outer loop
      vertex   9.070000e+01 6.055286e+01 1.042658e+01
      vertex   8.950000e+01 6.040120e+01 1.046722e+01
      vertex   8.950000e+01 6.055286e+01 1.042658e+01
    endloop
  endfacet
  facet normal -0.000000e+00 -3.583679e-01 -9.335804e-01
    outer loop
      vertex   9.070000e+01 6.055286e+01 1.042658e+01
      vertex   8.950000e+01 6.055286e+01 1.042658e+01
      vertex   9.070000e+01 6.069943e+01 1.037032e+01
    endloop
  endfacet
  facet normal -0.000000e+00 -3.583679e-01 -9.335804e-01
    outer loop
      vertex   9.070000e+01 6.069943e+01 1.037032e+01
      vertex   8.950000e+01 6.055286e+01 1.042658e+01
      vertex   8.950000e+01 6.069943e+01 1.037032e+01
    endloop
  endfacet
  facet normal -0.000000e+00 -4.539905e-01 -8.910065e-01
    outer loop
      vertex   9.070000e+01 6.069943e+01 1.037032e+01
      vertex   8.950000e+01 6.069943e+01 1.037032e+01
      vertex   9.070000e+01 6.083933e+01 1.029904e+01
    endloop
  endfacet
  facet normal -0.000000e+00 -4.539905e-01 -8.910065e-01
    outer loop
      vertex   9.070000e+01 6.083933e+01 1.029904e+01
      vertex   8.950000e+01 6.069943e+01 1.037032e+01
      vertex   8.950000e+01 6.083933e+01 1.029904e+01
    endloop
  endfacet
  facet normal -0.000000e+00 -5.446390e-01 -8.386706e-01
    outer loop
      vertex   9.070000e+01 6.083933e+01 1.029904e+01
      vertex   8.950000e+01 6.083933e+01 1.029904e+01
      vertex   9.070000e+01 6.097101e+01 1.021353e+01
    endloop
  endfacet
  facet normal -0.000000e+00 -5.446390e-01 -8.386706e-01
    outer loop
      vertex   9.070000e+01 6.097101e+01 1.021353e+01
      vertex   8.950000e+01 6.083933e+01 1.029904e+01
      vertex   8.950000e+01 6.097101e+01 1.021353e+01
    endloop
  endfacet
  facet normal -0.000000e+00 -6.293204e-01 -7.771460e-01
    outer loop
      vertex   9.070000e+01 6.097101e+01 1.021353e+01
      vertex   8.950000e+01 6.097101e+01 1.021353e+01
      vertex   9.070000e+01 6.109303e+01 1.011472e+01
    endloop
  endfacet
  facet normal -0.000000e+00 -6.293204e-01 -7.771460e-01
    outer loop
      vertex   9.070000e+01 6.109303e+01 1.011472e+01
      vertex   8.950000e+01 6.097101e+01 1.021353e+01
      vertex   8.950000e+01 6.109303e+01 1.011472e+01
    endloop
  endfacet
  facet normal -0.000000e+00 -7.071068e-01 -7.071068e-01
    outer loop
      vertex   9.070000e+01 6.109303e+01 1.011472e+01
      vertex   8.950000e+01 6.109303e+01 1.011472e+01
      vertex   9.070000e+01 6.120405e+01 1.000370e+01
    endloop
  endfacet
  facet normal -0.000000e+00 -7.071068e-01 -7.071068e-01
    outer loop
      vertex   9.070000e+01 6.120405e+01 1.000370e+01
      vertex   8.950000e+01 6.109303e+01 1.011472e+01
      vertex   8.950000e+01 6.120405e+01 1.000370e+01
    endloop
  endfacet
  facet normal -0.000000e+00 -7.771460e-01 -6.293204e-01
    outer loop
      vertex   9.070000e+01 6.120405e+01 1.000370e+01
      vertex   8.950000e+01 6.120405e+01 1.000370e+01
      vertex   9.070000e+01 6.130286e+01 9.881678e+00
    endloop
  endfacet
  facet normal -0.000000e+00 -7.771460e-01 -6.293204e-01
    outer loop
      vertex   9.070000e+01 6.130286e+01 9.881678e+00
      vertex   8.950000e+01 6.120405e+01 1.000370e+01
      vertex   8.950000e+01 6.130286e+01 9.881678e+00
    endloop
  endfacet
  facet normal -0.000000e+00 -8.386706e-01 -5.446390e-01
    outer loop
      vertex   9.070000e+01 6.130286e+01 9.881678e+00
      vertex   8.950000e+01 6.130286e+01 9.881678e+00
      vertex   9.070000e+01 6.138837e+01 9.750000e+00
    endloop
  endfacet
  facet normal -0.000000e+00 -8.386706e-01 -5.446390e-01
    outer loop
      vertex   9.070000e+01 6.138837e+01 9.750000e+00
      vertex   8.950000e+01 6.130286e+01 9.881678e+00
      vertex   8.950000e+01 6.138837e+01 9.750000e+00
    endloop
  endfacet
  facet normal -0.000000e+00 -8.910065e-01 -4.539905e-01
    outer loop
      vertex   9.070000e+01 6.138837e+01 9.750000e+00
      vertex   8.950000e+01 6.138837e+01 9.750000e+00
      vertex   9.070000e+01 6.145965e+01 9.610105e+00
    endloop
  endfacet
  facet normal -0.000000e+00 -8.910065e-01 -4.539905e-01
    outer loop
      vertex   9.070000e+01 6.145965e+01 9.610105e+00
      vertex   8.950000e+01 6.138837e+01 9.750000e+00
      vertex   8.950000e+01 6.145965e+01 9.610105e+00
    endloop
  endfacet
  facet normal -0.000000e+00 -9.335804e-01 -3.583679e-01
    outer loop
      vertex   9.070000e+01 6.145965e+01 9.610105e+00
      vertex   8.950000e+01 6.145965e+01 9.610105e+00
      vertex   9.070000e+01 6.151591e+01 9.463525e+00
    endloop
  endfacet
  facet normal -0.000000e+00 -9.335804e-01 -3.583679e-01
    outer loop
      vertex   9.070000e+01 6.151591e+01 9.463525e+00
      vertex   8.950000e+01 6.145965e+01 9.610105e+00
      vertex   8.950000e+01 6.151591e+01 9.463525e+00
    endloop
  endfacet
  facet normal -0.000000e+00 -9.659258e-01 -2.588190e-01
    outer loop
      vertex   9.070000e+01 6.151591e+01 9.463525e+00
      vertex   8.950000e+01 6.151591e+01 9.463525e+00
      vertex   9.070000e+01 6.155655e+01 9.311868e+00
    endloop
  endfacet
  facet normal -0.000000e+00 -9.659258e-01 -2.588190e-01
    outer loop
      vertex   9.070000e+01 6.155655e+01 9.311868e+00
      vertex   8.950000e+01 6.151591e+01 9.463525e+00
      vertex   8.950000e+01 6.155655e+01 9.311868e+00
    endloop
  endfacet
  facet normal -0.000000e+00 -9.876883e-01 -1.564345e-01
    outer loop
      vertex   9.070000e+01 6.155655e+01 9.311868e+00
      vertex   8.950000e+01 6.155655e+01 9.311868e+00
      vertex   9.070000e+01 6.158111e+01 9.156793e+00
    endloop
  endfacet
  facet normal -2.315695e-16 -9.876883e-01 -1.564345e-01
    outer loop
      vertex   9.070000e+01 6.158111e+01 9.156793e+00
      vertex   8.950000e+01 6.155655e+01 9.311868e+00
      vertex   8.950000e+01 6.158111e+01 9.156793e+00
    endloop
  endfacet
  facet normal -7.747278e-17 -9.986295e-01 -5.233596e-02
    outer loop
      vertex   9.070000e+01 6.158111e+01 9.156793e+00
      vertex   8.950000e+01 6.158111e+01 9.156793e+00
      vertex   9.070000e+01 6.158933e+01 9.000000e+00
    endloop
  endfacet
  facet normal -0.000000e+00 -9.986295e-01 -5.233596e-02
    outer loop
      vertex   9.070000e+01 6.158933e+01 9.000000e+00
      vertex   8.950000e+01 6.158111e+01 9.156793e+00
      vertex   8.950000e+01 6.158933e+01 9.000000e+00
    endloop
  endfacet
  facet normal 1.037289e-16 -2.065531e-16 -1.000000e+00
    outer loop
      vertex   9.070000e+01 5.278933e+01 6.000000e+00
      vertex   1.249500e+02 6.138933e+01 6.000000e+00
      vertex   1.249500e+02 5.278933e+01 6.000000e+00
    endloop
  endfacet
  facet normal 2.547488e-15 -2.065531e-16 -1.000000e+00
    outer loop
      vertex   1.249500e+02 5.278933e+01 6.000000e+00
      vertex   1.249500e+02 6.138933e+01 6.000000e+00
      vertex   1.261500e+02 6.758933e+01 6.000000e+00
    endloop
  endfacet
  facet normal 1.043257e-15 -8.458842e-17 -1.000000e+00
    outer loop
      vertex   1.249500e+02 5.278933e+01 6.000000e+00
      vertex   1.261500e+02 6.758933e+01 6.000000e+00
      vertex   1.261500e+02 4.658933e+01 6.000000e+00
    endloop
  endfacet
  facet normal 1.776357e-16 -1.776357e-16 -1.000000e+00
    outer loop
      vertex   9.070000e+01 4.778933e+01 6.000000e+00
      vertex   8.950000e+01 4.658933e+01 6.000000e+00
      vertex   9.070000e+01 5.278933e+01 6.000000e+00
    endloop
  endfacet
  facet normal -3.031085e-16 -8.458842e-17 -1.000000e+00
    outer loop
      vertex   9.070000e+01 5.278933e+01 6.000000e+00
      vertex   8.950000e+01 4.658933e+01 6.000000e+00
      vertex   8.950000e+01 6.758933e+01 6.000000e+00
    endloop
  endfacet
  facet normal -5.335956e-16 -1.032766e-16 -1.000000e+00
    outer loop
      vertex   9.070000e+01 5.278933e+01 6.000000e+00
      vertex   8.950000e+01 6.758933e+01 6.000000e+00
      vertex   9.070000e+01 6.138933e+01 6.000000e+00
    endloop
  endfacet
  facet normal 0.000000e+00 0.000000e+00 -1.000000e+00
    outer loop
      vertex   9.070000e+01 6.138933e+01 6.000000e+00
      vertex   8.950000e+01 6.758933e+01 6.000000e+00
      vertex   9.070000e+01 6.638933e+01 6.000000e+00
    endloop
  endfacet
  facet normal 1.211703e-16 1.211703e-16 -1.000000e+00
    outer loop
      vertex   9.070000e+01 6.638933e+01 6.000000e+00
      vertex   8.950000e+01 6.758933e+01 6.000000e+00
      vertex   1.261500e+02 6.758933e+01 6.000000e+00
    endloop
  endfacet
  facet normal 7.779665e-17 1.402501e-15 -1.000000e+00
    outer loop
      vertex   9.070000e+01 6.638933e+01 6.000000e+00
      vertex   1.261500e+02 6.758933e+01 6.000000e+00
      vertex   1.249500e+02 6.638933e+01 6.000000e+00
    endloop
  endfacet
  facet normal 1.480297e-15 0.000000e+00 -1.000000e+00
    outer loop
      vertex   1.249500e+02 6.638933e+01 6.000000e+00
      vertex   1.261500e+02 6.758933e+01 6.000000e+00
      vertex   1.249500e+02 6.138933e+01 6.000000e+00
    endloop
  endfacet
  facet normal 1.037289e-16 -1.037289e-16 -1.000000e+00
    outer loop
      vertex   9.070000e+01 4.778933e+01 6.000000e+00
      vertex   1.249500e+02 4.778933e+01 6.000000e+00
      vertex   8.950000e+01 4.658933e+01 6.000000e+00
    endloop
  endfacet
  facet normal 1.211703e-16 -6.189784e-16 -1.000000e+00
    outer loop
      vertex   8.950000e+01 4.658933e+01 6.000000e+00
      vertex   1.249500e+02 4.778933e+01 6.000000e+00
      vertex   1.261500e+02 4.658933e+01 6.000000e+00
    endloop
  endfacet
  facet normal 5.625130e-16 -1.776357e-16 -1.000000e+00
    outer loop
      vertex   1.261500e+02 4.658933e+01 6.000000e+00
      vertex   1.249500e+02 4.778933e+01 6.000000e+00
      vertex   1.249500e+02 5.278933e+01 6.000000e+00
    endloop
  endfacet
  facet normal 7.779665e-17 -1.032766e-16 -1.000000e+00
    outer loop
      vertex   9.070000e+01 6.138933e+01 6.000000e+00
      vertex   1.249500e+02 6.138933e+01 6.000000e+00
      vertex   9.070000e+01 5.278933e+01 6.000000e+00
    endloop
  endfacet
  facet normal 0.000000e+00 1.000000e+00 -0.000000e+00
    outer loop
      vertex   1.249500e+02 6.138933e+01 6.000000e+00
      vertex   9.070000e+01 6.138933e+01 6.000000e+00
      vertex   1.249500e+02 6.138933e+01 7.200000e+00
    endloop
  endfacet
  facet normal 0.000000e+00 1.000000e+00 0.000000e+00
    outer loop
      vertex   1.249500e+02 6.138933e+01 7.200000e+00
      vertex   9.070000e+01 6.138933e+01 6.000000e+00
      vertex   9.070000e+01 6.138933e+01 7.200000e+00
    endloop
  endfacet
  facet normal 0.000000e+00 -1.000000e+00 0.000000e+00
    outer loop
      vertex   9.070000e+01 5.278933e+01 6.000000e+00
      vertex   1.249500e+02 5.278933e+01 6.000000e+00
      vertex   9.070000e+01 5.278933e+01 7.200000e+00
    endloop
  endfacet
  facet normal 0.000000e+00 -1.000000e+00 0.000000e+00
    outer loop
      vertex   9.070000e+01 5.278933e+01 7.200000e+00
      vertex   1.249500e+02 5.278933e+01 6.000000e+00
      vertex   1.249500e+02 5.278933e+01 7.200000e+00
    endloop
  endfacet
  facet normal -4.474220e-31 -1.000000e+00 2.292073e-15
    outer loop
      vertex   1.261500e+02 4.658933e+01 9.100000e+00
      vertex   1.079500e+02 4.658933e+01 9.100000e+00
      vertex   1.261500e+02 4.658933e+01 6.000000e+00
    endloop
  endfacet
  facet normal -2.777313e-31 -1.000000e+00 2.292073e-15
    outer loop
      vertex   1.261500e+02 4.658933e+01 6.000000e+00
      vertex   1.079500e+02 4.658933e+01 9.100000e+00
      vertex   8.950000e+01 4.658933e+01 6.000000e+00
    endloop
  endfacet
  facet normal 3.851180e-16 -1.000000e+00 0.000000e+00
    outer loop
      vertex   8.950000e+01 4.658933e+01 6.000000e+00
      vertex   1.079500e+02 4.658933e+01 9.100000e+00
      vertex   8.950000e+01 4.658933e+01 1.170000e+01
    endloop
  endfacet
  facet normal 3.851180e-16 -1.000000e+00 0.000000e+00
    outer loop
      vertex   8.950000e+01 4.658933e+01 1.170000e+01
      vertex   1.079500e+02 4.658933e+01 9.100000e+00
      vertex   1.079500e+02 4.658933e+01 1.170000e+01
    endloop
  endfacet
  facet normal 1.000000e+00 0.000000e+00 0.000000e+00
    outer loop
      vertex   1.261500e+02 6.758933e+01 9.100000e+00
      vertex   1.261500e+02 4.658933e+01 9.100000e+00
      vertex   1.261500e+02 6.758933e+01 6.000000e+00
    endloop
  endfacet
  facet normal 1.000000e+00 0.000000e+00 0.000000e+00
    outer loop
      vertex   1.261500e+02 6.758933e+01 6.000000e+00
      vertex   1.261500e+02 4.658933e+01 9.100000e+00
      vertex   1.261500e+02 4.658933e+01 6.000000e+00
    endloop
  endfacet
  facet normal -1.000000e+00 0.000000e+00 0.000000e+00
    outer loop
      vertex   8.950000e+01 6.024612e+01 1.049178e+01
      vertex   8.950000e+01 6.008933e+01 1.050000e+01
      vertex   8.950000e+01 6.758933e+01 1.170000e+01
    endloop
  endfacet
  facet normal -1.000000e+00 0.000000e+00 0.000000e+00
    outer loop
      vertex   8.950000e+01 6.758933e+01 1.170000e+01
      vertex   8.950000e+01 6.008933e+01 1.050000e+01
      vertex   8.950000e+01 5.408933e+01 1.050000e+01
    endloop
  endfacet
  facet normal -1.000000e+00 -0.000000e+00 0.000000e+00
    outer loop
      vertex   8.950000e+01 6.758933e+01 1.170000e+01
      vertex   8.950000e+01 5.408933e+01 1.050000e+01
      vertex   8.950000e+01 4.658933e+01 1.170000e+01
    endloop
  endfacet
  facet normal -1.000000e+00 0.000000e+00 0.000000e+00
    outer loop
      vertex   8.950000e+01 4.658933e+01 1.170000e+01
      vertex   8.950000e+01 5.408933e+01 1.050000e+01
      vertex   8.950000e+01 5.393254e+01 1.049178e+01
    endloop
  endfacet
  facet normal -1.000000e+00 0.000000e+00 0.000000e+00
    outer loop
      vertex   8.950000e+01 4.658933e+01 1.170000e+01
      vertex   8.950000e+01 5.393254e+01 1.049178e+01
      vertex   8.950000e+01 5.377746e+01 1.046722e+01
    endloop
  endfacet
  facet normal -1.000000e+00 -0.000000e+00 0.000000e+00
    outer loop
      vertex   8.950000e+01 5.377746e+01 1.046722e+01
      vertex   8.950000e+01 5.362580e+01 1.042658e+01
      vertex   8.950000e+01 4.658933e+01 1.170000e+01
    endloop
  endfacet
  facet normal -1.000000e+00 0.000000e+00 0.000000e+00
    outer loop
      vertex   8.950000e+01 4.658933e+01 1.170000e+01
      vertex   8.950000e+01 5.362580e+01 1.042658e+01
      vertex   8.950000e+01 5.347923e+01 1.037032e+01
    endloop
  endfacet
  facet normal -1.000000e+00 0.000000e+00 0.000000e+00
    outer loop
      vertex   8.950000e+01 4.658933e+01 1.170000e+01
      vertex   8.950000e+01 5.347923e+01 1.037032e+01
      vertex   8.950000e+01 5.333933e+01 1.029904e+01
    endloop
  endfacet
  facet normal -1.000000e+00 -0.000000e+00 0.000000e+00
    outer loop
      vertex   8.950000e+01 5.333933e+01 1.029904e+01
      vertex   8.950000e+01 5.320765e+01 1.021353e+01
      vertex   8.950000e+01 4.658933e+01 1.170000e+01
    endloop
  endfacet
  facet normal -1.000000e+00 0.000000e+00 0.000000e+00
    outer loop
      vertex   8.950000e+01 4.658933e+01 1.170000e+01
      vertex   8.950000e+01 5.320765e+01 1.021353e+01
      vertex   8.950000e+01 5.308563e+01 1.011472e+01
    endloop
  endfacet
  facet normal -1.000000e+00 0.000000e+00 0.000000e+00
    outer loop
      vertex   8.950000e+01 4.658933e+01 1.170000e+01
      vertex   8.950000e+01 5.308563e+01 1.011472e+01
      vertex   8.950000e+01 5.297461e+01 1.000370e+01
    endloop
  endfacet
  facet normal -1.000000e+00 -0.000000e+00 0.000000e+00
    outer loop
      vertex   8.950000e+01 5.297461e+01 1.000370e+01
      vertex   8.950000e+01 5.287580e+01 9.881678e+00
      vertex   8.950000e+01 4.658933e+01 1.170000e+01
    endloop
  endfacet
  facet normal -1.000000e+00 0.000000e+00 0.000000e+00
    outer loop
      vertex   8.950000e+01 4.658933e+01 1.170000e+01
      vertex   8.950000e+01 5.287580e+01 9.881678e+00
      vertex   8.950000e+01 5.279029e+01 9.750000e+00
    endloop
  endfacet
  facet normal -1.000000e+00 0.000000e+00 0.000000e+00
    outer loop
      vertex   8.950000e+01 4.658933e+01 1.170000e+01
      vertex   8.950000e+01 5.279029e+01 9.750000e+00
      vertex   8.950000e+01 5.271901e+01 9.610105e+00
    endloop
  endfacet
  facet normal -1.000000e+00 -0.000000e+00 0.000000e+00
    outer loop
      vertex   8.950000e+01 5.271901e+01 9.610105e+00
      vertex   8.950000e+01 5.266275e+01 9.463525e+00
      vertex   8.950000e+01 4.658933e+01 1.170000e+01
    endloop
  endfacet
  facet normal -1.000000e+00 0.000000e+00 0.000000e+00
    outer loop
      vertex   8.950000e+01 4.658933e+01 1.170000e+01
      vertex   8.950000e+01 5.266275e+01 9.463525e+00
      vertex   8.950000e+01 5.262211e+01 9.311868e+00
    endloop
  endfacet
  facet normal -1.000000e+00 0.000000e+00 0.000000e+00
    outer loop
      vertex   8.950000e+01 4.658933e+01 1.170000e+01
      vertex   8.950000e+01 5.262211e+01 9.311868e+00
      vertex   8.950000e+01 5.259755e+01 9.156793e+00
    endloop
  endfacet
  facet normal -1.000000e+00 -0.000000e+00 0.000000e+00
    outer loop
      vertex   8.950000e+01 5.259755e+01 9.156793e+00
      vertex   8.950000e+01 5.258933e+01 9.000000e+00
      vertex   8.950000e+01 4.658933e+01 1.170000e+01
    endloop
  endfacet
  facet normal -1.000000e+00 0.000000e+00 0.000000e+00
    outer loop
      vertex   8.950000e+01 4.658933e+01 1.170000e+01
      vertex   8.950000e+01 5.258933e+01 9.000000e+00
      vertex   8.950000e+01 4.658933e+01 6.000000e+00
    endloop
  endfacet
  facet normal -1.000000e+00 0.000000e+00 0.000000e+00
    outer loop
      vertex   8.950000e+01 4.658933e+01 6.000000e+00
      vertex   8.950000e+01 5.258933e+01 9.000000e+00
      vertex   8.950000e+01 5.258933e+01 8.700000e+00
    endloop
  endfacet
  facet normal -1.000000e+00 0.000000e+00 0.000000e+00
    outer loop
      vertex   8.950000e+01 4.658933e+01 6.000000e+00
      vertex   8.950000e+01 5.258933e+01 8.700000e+00
      vertex   8.950000e+01 5.259755e+01 8.543207e+00
    endloop
  endfacet
  facet normal -1.000000e+00 0.000000e+00 -0.000000e+00
    outer loop
      vertex   8.950000e+01 5.259755e+01 8.543207e+00
      vertex   8.950000e+01 5.262211e+01 8.388132e+00
      vertex   8.950000e+01 4.658933e+01 6.000000e+00
    endloop
  endfacet
  facet normal -1.000000e+00 0.000000e+00 0.000000e+00
    outer loop
      vertex   8.950000e+01 4.658933e+01 6.000000e+00
      vertex   8.950000e+01 5.262211e+01 8.388132e+00
      vertex   8.950000e+01 5.266275e+01 8.236475e+00
    endloop
  endfacet
  facet normal -1.000000e+00 0.000000e+00 0.000000e+00
    outer loop
      vertex   8.950000e+01 4.658933e+01 6.000000e+00
      vertex   8.950000e+01 5.266275e+01 8.236475e+00
      vertex   8.950000e+01 5.271901e+01 8.089895e+00
    endloop
  endfacet
  facet normal -1.000000e+00 0.000000e+00 -0.000000e+00
    outer loop
      vertex   8.950000e+01 5.271901e+01 8.089895e+00
      vertex   8.950000e+01 5.279029e+01 7.950000e+00
      vertex   8.950000e+01 4.658933e+01 6.000000e+00
    endloop
  endfacet
  facet normal -1.000000e+00 0.000000e+00 0.000000e+00
    outer loop
      vertex   8.950000e+01 4.658933e+01 6.000000e+00
      vertex   8.950000e+01 5.279029e+01 7.950000e+00
      vertex   8.950000e+01 5.287580e+01 7.818322e+00
    endloop
  endfacet
  facet normal -1.000000e+00 0.000000e+00 0.000000e+00
    outer loop
      vertex   8.950000e+01 4.658933e+01 6.000000e+00
      vertex   8.950000e+01 5.287580e+01 7.818322e+00
      vertex   8.950000e+01 5.297461e+01 7.696304e+00
    endloop
  endfacet
  facet normal -1.000000e+00 0.000000e+00 -0.000000e+00
    outer loop
      vertex   8.950000e+01 5.297461e+01 7.696304e+00
      vertex   8.950000e+01 5.308563e+01 7.585283e+00
      vertex   8.950000e+01 4.658933e+01 6.000000e+00
    endloop
  endfacet
  facet normal -1.000000e+00 0.000000e+00 0.000000e+00
    outer loop
      vertex   8.950000e+01 4.658933e+01 6.000000e+00
      vertex   8.950000e+01 5.308563e+01 7.585283e+00
      vertex   8.950000e+01 5.320765e+01 7.486475e+00
    endloop
  endfacet
  facet normal -1.000000e+00 0.000000e+00 0.000000e+00
    outer loop
      vertex   8.950000e+01 4.658933e+01 6.000000e+00
      vertex   8.950000e+01 5.320765e+01 7.486475e+00
      vertex   8.950000e+01 5.333933e+01 7.400962e+00
    endloop
  endfacet
  facet normal -1.000000e+00 0.000000e+00 -0.000000e+00
    outer loop
      vertex   8.950000e+01 5.333933e+01 7.400962e+00
      vertex   8.950000e+01 5.347923e+01 7.329682e+00
      vertex   8.950000e+01 4.658933e+01 6.000000e+00
    endloop
  endfacet
  facet normal -1.000000e+00 0.000000e+00 0.000000e+00
    outer loop
      vertex   8.950000e+01 4.658933e+01 6.000000e+00
      vertex   8.950000e+01 5.347923e+01 7.329682e+00
      vertex   8.950000e+01 5.362580e+01 7.273415e+00
    endloop
  endfacet
  facet normal -1.000000e+00 0.000000e+00 0.000000e+00
    outer loop
      vertex   8.950000e+01 4.658933e+01 6.000000e+00
      vertex   8.950000e+01 5.362580e+01 7.273415e+00
      vertex   8.950000e+01 5.377746e+01 7.232779e+00
    endloop
  endfacet
  facet normal -1.000000e+00 0.000000e+00 -0.000000e+00
    outer loop
      vertex   8.950000e+01 5.377746e+01 7.232779e+00
      vertex   8.950000e+01 5.393254e+01 7.208217e+00
      vertex   8.950000e+01 4.658933e+01 6.000000e+00
    endloop
  endfacet
  facet normal -1.000000e+00 0.000000e+00 0.000000e+00
    outer loop
      vertex   8.950000e+01 4.658933e+01 6.000000e+00
      vertex   8.950000e+01 5.393254e+01 7.208217e+00
      vertex   8.950000e+01 5.408933e+01 7.200000e+00
    endloop
  endfacet
  facet normal -1.000000e+00 0.000000e+00 0.000000e+00
    outer loop
      vertex   8.950000e+01 4.658933e+01 6.000000e+00
      vertex   8.950000e+01 5.408933e+01 7.200000e+00
      vertex   8.950000e+01 6.008933e+01 7.200000e+00
    endloop
  endfacet
  facet normal -1.000000e+00 0.000000e+00 0.000000e+00
    outer loop
      vertex   8.950000e+01 4.658933e+01 6.000000e+00
      vertex   8.950000e+01 6.008933e+01 7.200000e+00
      vertex   8.950000e+01 6.758933e+01 6.000000e+00
    endloop
  endfacet
  facet normal -1.000000e+00 0.000000e+00 0.000000e+00
    outer loop
      vertex   8.950000e+01 6.758933e+01 6.000000e+00
      vertex   8.950000e+01 6.008933e+01 7.200000e+00
      vertex   8.950000e+01 6.024612e+01 7.208217e+00
    endloop
  endfacet
  facet normal -1.000000e+00 0.000000e+00 0.000000e+00
    outer loop
      vertex   8.950000e+01 6.758933e+01 6.000000e+00
      vertex   8.950000e+01 6.024612e+01 7.208217e+00
      vertex   8.950000e+01 6.040120e+01 7.232779e+00
    endloop
  endfacet
  facet normal -1.000000e+00 0.000000e+00 0.000000e+00
    outer loop
      vertex   8.950000e+01 6.040120e+01 7.232779e+00
      vertex   8.950000e+01 6.055286e+01 7.273415e+00
      vertex   8.950000e+01 6.758933e+01 6.000000e+00
    endloop
  endfacet
  facet normal -1.000000e+00 0.000000e+00 0.000000e+00
    outer loop
      vertex   8.950000e+01 6.758933e+01 6.000000e+00
      vertex   8.950000e+01 6.055286e+01 7.273415e+00
      vertex   8.950000e+01 6.069943e+01 7.329682e+00
    endloop
  endfacet
  facet normal -1.000000e+00 0.000000e+00 0.000000e+00
    outer loop
      vertex   8.950000e+01 6.758933e+01 6.000000e+00
      vertex   8.950000e+01 6.069943e+01 7.329682e+00
      vertex   8.950000e+01 6.083933e+01 7.400962e+00
    endloop
  endfacet
  facet normal -1.000000e+00 0.000000e+00 0.000000e+00
    outer loop
      vertex   8.950000e+01 6.083933e+01 7.400962e+00
      vertex   8.950000e+01 6.097101e+01 7.486475e+00
      vertex   8.950000e+01 6.758933e+01 6.000000e+00
    endloop
  endfacet
  facet normal -1.000000e+00 0.000000e+00 0.000000e+00
    outer loop
      vertex   8.950000e+01 6.758933e+01 6.000000e+00
      vertex   8.950000e+01 6.097101e+01 7.486475e+00
      vertex   8.950000e+01 6.109303e+01 7.585283e+00
    endloop
  endfacet
  facet normal -1.000000e+00 0.000000e+00 0.000000e+00
    outer loop
      vertex   8.950000e+01 6.758933e+01 6.000000e+00
      vertex   8.950000e+01 6.109303e+01 7.585283e+00
      vertex   8.950000e+01 6.120405e+01 7.696304e+00
    endloop
  endfacet
  facet normal -1.000000e+00 0.000000e+00 0.000000e+00
    outer loop
      vertex   8.950000e+01 6.120405e+01 7.696304e+00
      vertex   8.950000e+01 6.130286e+01 7.818322e+00
      vertex   8.950000e+01 6.758933e+01 6.000000e+00
    endloop
  endfacet
  facet normal -1.000000e+00 0.000000e+00 0.000000e+00
    outer loop
      vertex   8.950000e+01 6.758933e+01 6.000000e+00
      vertex   8.950000e+01 6.130286e+01 7.818322e+00
      vertex   8.950000e+01 6.138837e+01 7.950000e+00
    endloop
  endfacet
  facet normal -1.000000e+00 0.000000e+00 0.000000e+00
    outer loop
      vertex   8.950000e+01 6.758933e+01 6.000000e+00
      vertex   8.950000e+01 6.138837e+01 7.950000e+00
      vertex   8.950000e+01 6.145965e+01 8.089895e+00
    endloop
  endfacet
  facet normal -1.000000e+00 0.000000e+00 0.000000e+00
    outer loop
      vertex   8.950000e+01 6.145965e+01 8.089895e+00
      vertex   8.950000e+01 6.151591e+01 8.236475e+00
      vertex   8.950000e+01 6.758933e+01 6.000000e+00
    endloop
  endfacet
  facet normal -1.000000e+00 0.000000e+00 0.000000e+00
    outer loop
      vertex   8.950000e+01 6.758933e+01 6.000000e+00
      vertex   8.950000e+01 6.151591e+01 8.236475e+00
      vertex   8.950000e+01 6.155655e+01 8.388132e+00
    endloop
  endfacet
  facet normal -1.000000e+00 0.000000e+00 0.000000e+00
    outer loop
      vertex   8.950000e+01 6.758933e+01 6.000000e+00
      vertex   8.950000e+01 6.155655e+01 8.388132e+00
      vertex   8.950000e+01 6.158111e+01 8.543207e+00
    endloop
  endfacet
  facet normal -1.000000e+00 0.000000e+00 0.000000e+00
    outer loop
      vertex   8.950000e+01 6.158111e+01 8.543207e+00
      vertex   8.950000e+01 6.158933e+01 8.700000e+00
      vertex   8.950000e+01 6.758933e+01 6.000000e+00
    endloop
  endfacet
  facet normal -1.000000e+00 0.000000e+00 0.000000e+00
    outer loop
      vertex   8.950000e+01 6.758933e+01 6.000000e+00
      vertex   8.950000e+01 6.158933e+01 8.700000e+00
      vertex   8.950000e+01 6.158933e+01 9.000000e+00
    endloop
  endfacet
  facet normal -1.000000e+00 0.000000e+00 0.000000e+00
    outer loop
      vertex   8.950000e+01 6.758933e+01 6.000000e+00
      vertex   8.950000e+01 6.158933e+01 9.000000e+00
      vertex   8.950000e+01 6.758933e+01 1.170000e+01
    endloop
  endfacet
  facet normal -1.000000e+00 0.000000e+00 0.000000e+00
    outer loop
      vertex   8.950000e+01 6.758933e+01 1.170000e+01
      vertex   8.950000e+01 6.158933e+01 9.000000e+00
      vertex   8.950000e+01 6.158111e+01 9.156793e+00
    endloop
  endfacet
  facet normal -1.000000e+00 0.000000e+00 0.000000e+00
    outer loop
      vertex   8.950000e+01 6.758933e+01 1.170000e+01
      vertex   8.950000e+01 6.158111e+01 9.156793e+00
      vertex   8.950000e+01 6.155655e+01 9.311868e+00
    endloop
  endfacet
  facet normal -1.000000e+00 0.000000e+00 0.000000e+00
    outer loop
      vertex   8.950000e+01 6.155655e+01 9.311868e+00
      vertex   8.950000e+01 6.151591e+01 9.463525e+00
      vertex   8.950000e+01 6.758933e+01 1.170000e+01
    endloop
  endfacet
  facet normal -1.000000e+00 0.000000e+00 0.000000e+00
    outer loop
      vertex   8.950000e+01 6.758933e+01 1.170000e+01
      vertex   8.950000e+01 6.151591e+01 9.463525e+00
      vertex   8.950000e+01 6.145965e+01 9.610105e+00
    endloop
  endfacet
  facet normal -1.000000e+00 0.000000e+00 0.000000e+00
    outer loop
      vertex   8.950000e+01 6.758933e+01 1.170000e+01
      vertex   8.950000e+01 6.145965e+01 9.610105e+00
      vertex   8.950000e+01 6.138837e+01 9.750000e+00
    endloop
  endfacet
  facet normal -1.000000e+00 0.000000e+00 0.000000e+00
    outer loop
      vertex   8.950000e+01 6.138837e+01 9.750000e+00
      vertex   8.950000e+01 6.130286e+01 9.881678e+00
      vertex   8.950000e+01 6.758933e+01 1.170000e+01
    endloop
  endfacet
  facet normal -1.000000e+00 0.000000e+00 0.000000e+00
    outer loop
      vertex   8.950000e+01 6.758933e+01 1.170000e+01
      vertex   8.950000e+01 6.130286e+01 9.881678e+00
      vertex   8.950000e+01 6.120405e+01 1.000370e+01
    endloop
  endfacet
  facet normal -1.000000e+00 0.000000e+00 0.000000e+00
    outer loop
      vertex   8.950000e+01 6.758933e+01 1.170000e+01
      vertex   8.950000e+01 6.120405e+01 1.000370e+01
      vertex   8.950000e+01 6.109303e+01 1.011472e+01
    endloop
  endfacet
  facet normal -1.000000e+00 0.000000e+00 0.000000e+00
    outer loop
      vertex   8.950000e+01 6.109303e+01 1.011472e+01
      vertex   8.950000e+01 6.097101e+01 1.021353e+01
      vertex   8.950000e+01 6.758933e+01 1.170000e+01
    endloop
  endfacet
  facet normal -1.000000e+00 0.000000e+00 0.000000e+00
    outer loop
      vertex   8.950000e+01 6.758933e+01 1.170000e+01
      vertex   8.950000e+01 6.097101e+01 1.021353e+01
      vertex   8.950000e+01 6.083933e+01 1.029904e+01
    endloop
  endfacet
  facet normal -1.000000e+00 0.000000e+00 0.000000e+00
    outer loop
      vertex   8.950000e+01 6.758933e+01 1.170000e+01
      vertex   8.950000e+01 6.083933e+01 1.029904e+01
      vertex   8.950000e+01 6.069943e+01 1.037032e+01
    endloop
  endfacet
  facet normal -1.000000e+00 0.000000e+00 0.000000e+00
    outer loop
      vertex   8.950000e+01 6.069943e+01 1.037032e+01
      vertex   8.950000e+01 6.055286e+01 1.042658e+01
      vertex   8.950000e+01 6.758933e+01 1.170000e+01
    endloop
  endfacet
  facet normal -1.000000e+00 0.000000e+00 0.000000e+00
    outer loop
      vertex   8.950000e+01 6.758933e+01 1.170000e+01
      vertex   8.950000e+01 6.055286e+01 1.042658e+01
      vertex   8.950000e+01 6.040120e+01 1.046722e+01
    endloop
  endfacet
  facet normal -1.000000e+00 0.000000e+00 0.000000e+00
    outer loop
      vertex   8.950000e+01 6.758933e+01 1.170000e+01
      vertex   8.950000e+01 6.040120e+01 1.046722e+01
      vertex   8.950000e+01 6.024612e+01 1.049178e+01
    endloop
  endfacet
  facet normal -7.779665e-17 0.000000e+00 1.000000e+00
    outer loop
      vertex   9.070000e+01 5.278933e+01 7.200000e+00
      vertex   1.249500e+02 5.278933e+01 7.200000e+00
      vertex   9.070000e+01 5.408933e+01 7.200000e+00
    endloop
  endfacet
  facet normal -7.779665e-17 0.000000e+00 1.000000e+00
    outer loop
      vertex   9.070000e+01 5.408933e+01 7.200000e+00
      vertex   1.249500e+02 5.278933e+01 7.200000e+00
      vertex   9.070000e+01 6.008933e+01 7.200000e+00
    endloop
  endfacet
  facet normal 0.000000e+00 -0.000000e+00 1.000000e+00
    outer loop
      vertex   9.070000e+01 5.408933e+01 7.200000e+00
      vertex   9.070000e+01 6.008933e+01 7.200000e+00
      vertex   8.950000e+01 6.008933e+01 7.200000e+00
    endloop
  endfacet
  facet normal -5.578442e-17 1.032766e-16 1.000000e+00
    outer loop
      vertex   1.249500e+02 5.278933e+01 7.200000e+00
      vertex   1.249500e+02 6.138933e+01 7.200000e+00
      vertex   9.070000e+01 6.008933e+01 7.200000e+00
    endloop
  endfacet
  facet normal -7.779665e-17 6.832142e-16 1.000000e+00
    outer loop
      vertex   9.070000e+01 6.008933e+01 7.200000e+00
      vertex   1.249500e+02 6.138933e+01 7.200000e+00
      vertex   9.070000e+01 6.138933e+01 7.200000e+00
    endloop
  endfacet
  facet normal 0.000000e+00 0.000000e+00 1.000000e+00
    outer loop
      vertex   8.950000e+01 6.008933e+01 7.200000e+00
      vertex   8.950000e+01 5.408933e+01 7.200000e+00
      vertex   9.070000e+01 5.408933e+01 7.200000e+00
    endloop
  endfacet
endsolid
